<?xml version="1.0" encoding="UTF-8"?>
<svg id="Layer_2" data-name="Layer 2" xmlns="http://www.w3.org/2000/svg" viewBox="0 0 138.99 42.63">
  <defs>
    <style>
      .cls-1 {
        fill: #fff;
      }
    </style>
  </defs>
  <g id="Layer_1-2" data-name="Layer 1">
    <g>
      <path class="cls-1" d="M0,17.92l2.12-.35V.83L0,.51v-.51h7.02c1.66,0,2.97.15,3.96.46.98.31,1.69.77,2.14,1.39.44.62.67,1.44.67,2.45,0,2.21-1.4,3.62-4.19,4.23v.12c1.7.23,3.02.74,3.97,1.52.94.78,1.41,1.87,1.41,3.27,0,1.69-.62,2.94-1.85,3.75-1.23.81-2.9,1.22-5,1.22H0v-.48ZM7.2,8.46c1.23,0,2.17-.34,2.83-1.04.66-.69.99-1.67.99-2.94v-.14c0-2.51-1.33-3.77-4-3.77h-2.37v7.89h2.55ZM8.12,17.85c1.3,0,2.31-.38,3.04-1.14.72-.76,1.08-1.84,1.08-3.25v-.25c0-1.4-.36-2.44-1.07-3.13s-1.73-1.03-3.05-1.03h-3.47v8.81h3.47Z"/>
      <path class="cls-1" d="M16.61,17.94l1.61-.23V7.18l-1.61-.23v-.46h3.91v1.77c.97-1.32,2.05-1.98,3.27-1.98.58,0,1.1.15,1.54.45.44.3.67.72.67,1.28,0,.4-.13.73-.39,1-.26.27-.61.4-1.03.4-.49,0-.89-.19-1.2-.57.17-.21.25-.44.25-.69,0-.26-.09-.47-.26-.63-.18-.16-.41-.24-.7-.24-.32,0-.65.15-.99.45-.34.3-.72.76-1.15,1.39v8.6l1.84.23v.46h-5.75v-.46Z"/>
      <path class="cls-1" d="M29.67,17.86c-.92-.51-1.65-1.24-2.19-2.17-.54-.94-.81-2.02-.81-3.24s.26-2.3.79-3.23c.53-.93,1.24-1.65,2.14-2.16.9-.51,1.9-.77,3-.77.97,0,1.83.21,2.6.64.77.43,1.36,1.02,1.79,1.78.43.76.65,1.63.67,2.61h-8.46v2.28c0,1.35.3,2.44.91,3.28.61.84,1.48,1.25,2.63,1.25,1.06,0,1.99-.3,2.81-.9.81-.6,1.31-1.37,1.49-2.32h.53c-.21,1.13-.76,2.04-1.63,2.71-.87.68-1.94,1.01-3.2,1.01-1.13,0-2.16-.26-3.08-.77ZM35.14,10.74c0-1.33-.21-2.33-.62-2.98-.41-.65-1.06-.98-1.93-.98-1.03,0-1.82.36-2.39,1.08-.57.72-.89,1.68-.97,2.88h5.91Z"/>
      <path class="cls-1" d="M42.3,17.86c-.9-.51-1.62-1.24-2.15-2.19-.53-.94-.79-2.02-.79-3.23,0-1.27.28-2.38.84-3.31.56-.94,1.29-1.64,2.2-2.13s1.88-.72,2.92-.72c.87,0,1.67.15,2.39.45.72.3,1.29.72,1.71,1.25s.63,1.14.63,1.82c0,.51-.13.89-.39,1.16-.26.27-.61.4-1.04.4s-.76-.14-1.03-.41c-.28-.28-.41-.62-.41-1.03.23-.15.39-.32.48-.51.09-.18.14-.41.14-.69,0-.57-.23-1.03-.68-1.39-.45-.36-1.05-.54-1.81-.54-1.1,0-1.95.4-2.54,1.18-.59.79-.89,1.9-.89,3.32v2.3c0,1.37.29,2.46.86,3.29.58.83,1.43,1.24,2.56,1.24,1.04,0,1.95-.3,2.73-.89.77-.59,1.25-1.37,1.44-2.33h.53c-.22,1.13-.75,2.04-1.6,2.71-.85.68-1.88,1.01-3.09,1.01-1.1,0-2.11-.26-3.01-.77Z"/>
      <path class="cls-1" d="M51.17,18.4v-.46l1.61-.23V.69l-1.61-.23v-.46h3.91v11.8l5.27-4.32-2-.53v-.46h4.32v.46l-1.47.53-3.82,3.13,5.38,7.13,1.24.21v.46h-5.38v-.46l1.38-.23-4.32-5.7-.6.51v5.2l1.38.23v.46h-5.29Z"/>
      <path class="cls-1" d="M64.12,18.4v-.46l1.61-.23V7.2l-1.61-.23v-.46h3.91v11.2l1.61.23v.46h-5.52ZM65.46,3.37c-.31-.3-.46-.66-.46-1.09s.15-.79.45-1.08c.3-.29.67-.44,1.12-.44.41,0,.77.15,1.06.44.29.29.44.65.44,1.08s-.15.79-.44,1.09c-.29.3-.64.45-1.06.45s-.8-.15-1.1-.45Z"/>
      <path class="cls-1" d="M70.52,17.94l1.61-.23V7.18l-1.61-.23v-.46h3.91v2.48c.57-.83,1.23-1.48,2-1.97.77-.48,1.59-.72,2.48-.72,1.1,0,1.97.28,2.61.83.64.55.95,1.37.95,2.46v8.14l1.61.23v.46h-5.29v-.46l1.38-.23v-8.1c0-.8-.16-1.41-.48-1.85s-.82-.66-1.5-.66-1.38.26-2.04.77c-.65.51-1.23,1.15-1.74,1.9v7.94l1.38.23v.46h-5.29v-.46Z"/>
      <path class="cls-1" d="M84.89,17.94l1.61-.23V7.18l-1.61-.23v-.46h3.91v1.77c.97-1.32,2.05-1.98,3.27-1.98.58,0,1.1.15,1.54.45.44.3.67.72.67,1.28,0,.4-.13.73-.39,1-.26.27-.61.4-1.04.4-.49,0-.89-.19-1.2-.57.17-.21.25-.44.25-.69,0-.26-.09-.47-.26-.63-.18-.16-.41-.24-.7-.24-.32,0-.65.15-.99.45-.34.3-.72.76-1.15,1.39v8.6l1.84.23v.46h-5.75v-.46Z"/>
      <path class="cls-1" d="M94.85,18.4v-.46l1.61-.23V7.2l-1.61-.23v-.46h3.91v11.2l1.61.23v.46h-5.52ZM96.18,3.37c-.31-.3-.46-.66-.46-1.09s.15-.79.45-1.08c.3-.29.67-.44,1.12-.44.41,0,.77.15,1.06.44.29.29.44.65.44,1.08s-.15.79-.44,1.09c-.29.3-.64.45-1.06.45s-.8-.15-1.1-.45Z"/>
      <path class="cls-1" d="M104.23,17.86c-.83-.51-1.47-1.23-1.93-2.16-.46-.93-.69-2.01-.69-3.25s.23-2.33.69-3.25,1.1-1.64,1.93-2.15c.83-.51,1.79-.76,2.88-.76.89,0,1.66.23,2.32.7s1.18,1.11,1.56,1.92V.69l-1.61-.23v-.46h3.91v17.71l1.61.23v.46h-3.91v-2.39c-.38.81-.91,1.45-1.56,1.92-.66.47-1.43.7-2.32.7-1.09,0-2.05-.26-2.88-.77ZM109.17,17.47c.54-.39.98-.91,1.31-1.56.33-.65.5-1.36.52-2.13v-2.65c-.02-.77-.19-1.48-.52-2.13-.33-.65-.77-1.17-1.31-1.56-.54-.39-1.15-.59-1.83-.59-2.13,0-3.2,1.48-3.2,4.44v2.3c0,2.98,1.07,4.46,3.2,4.46.67,0,1.28-.2,1.83-.59Z"/>
      <path class="cls-1" d="M126.91,6.95c-.45.43-1.15.71-2.12.83.4.58.6,1.38.6,2.39,0,1.2-.43,2.14-1.28,2.83-.85.69-1.93,1.03-3.23,1.03-.54,0-1.03-.05-1.47-.14-.98.06-1.47.44-1.47,1.15,0,.4.16.69.49.87s.85.28,1.58.28h2.58c1.24,0,2.17.25,2.77.76.61.51.91,1.37.91,2.6,0,.86-.22,1.65-.66,2.37-.44.72-1.07,1.29-1.9,1.71-.83.42-1.82.63-2.97.63-1.73,0-3.01-.26-3.83-.78-.82-.52-1.23-1.21-1.23-2.07,0-.52.2-.98.6-1.38s.94-.6,1.63-.6c.14,0,.42.03.85.09-.48.51-.71,1.1-.71,1.79s.23,1.23.69,1.73,1.21.74,2.25.74c.9,0,1.71-.17,2.43-.52.71-.34,1.26-.79,1.64-1.35.38-.55.58-1.12.58-1.7,0-.64-.21-1.11-.62-1.39s-1.15-.43-2.21-.43h-2.81c-1.07,0-1.88-.21-2.43-.63-.54-.42-.82-1.05-.82-1.87,0-.55.16-1.04.47-1.46s.72-.69,1.21-.82c-1.33-.57-2-1.72-2-3.45,0-1.21.42-2.16,1.26-2.85.84-.69,1.9-1.04,3.17-1.04,1.61,0,2.78.34,3.5,1.01.43-.08.75-.22.97-.43.21-.21.32-.44.32-.7,0-.25-.07-.43-.21-.56-.14-.13-.3-.2-.48-.2,0-.34.13-.63.38-.89s.56-.38.91-.38c.38,0,.7.11.94.34s.37.54.37.92c0,.6-.22,1.11-.67,1.54ZM123.23,9.59c0-.94-.2-1.66-.59-2.16-.39-.51-.98-.76-1.76-.76-1.52,0-2.28.97-2.28,2.92v1.13c0,.91.19,1.62.56,2.14.38.52.95.78,1.71.78s1.37-.26,1.76-.78c.39-.52.59-1.23.59-2.14v-1.13Z"/>
      <path class="cls-1" d="M130.98,17.86c-.92-.51-1.65-1.24-2.18-2.17-.54-.94-.8-2.02-.8-3.24s.26-2.3.79-3.23c.53-.93,1.24-1.65,2.14-2.16.9-.51,1.9-.77,3-.77.97,0,1.83.21,2.6.64.77.43,1.36,1.02,1.79,1.78.43.76.65,1.63.67,2.61h-8.46v2.28c0,1.35.3,2.44.91,3.28.61.84,1.48,1.25,2.63,1.25,1.06,0,1.99-.3,2.81-.9.81-.6,1.31-1.37,1.5-2.32h.53c-.21,1.13-.76,2.04-1.63,2.71-.87.68-1.94,1.01-3.2,1.01-1.13,0-2.16-.26-3.08-.77ZM136.46,10.74c0-1.33-.21-2.33-.62-2.98-.41-.65-1.06-.98-1.93-.98-1.03,0-1.83.36-2.39,1.08-.57.72-.89,1.68-.97,2.88h5.91Z"/>
      <path class="cls-1" d="M0,41.92l2.12-.35v-16.74l-2.12-.32v-.51h7.22c2.27,0,3.96.48,5.06,1.45,1.1.97,1.66,2.36,1.66,4.19s-.55,3.22-1.66,4.19c-1.1.97-2.79,1.45-5.06,1.45h-2.58v6.3l2.12.35v.48H0v-.48ZM6.9,34.72c2.84,0,4.26-1.54,4.26-4.62v-.92c0-3.07-1.42-4.6-4.26-4.6h-2.25v10.14h2.25Z"/>
      <path class="cls-1" d="M16.12,41.86c-.63-.51-.94-1.28-.94-2.29,0-1.44.61-2.46,1.82-3.07,1.21-.61,2.61-.91,4.21-.91h1.54v-1.77c0-.8-.09-1.41-.26-1.85s-.45-.74-.82-.92c-.37-.18-.87-.26-1.5-.26-.72,0-1.26.14-1.61.43-.35.28-.53.66-.53,1.14,0,.44.21.74.64.87,0,.38-.15.72-.44,1.01s-.64.44-1.04.44c-.43,0-.77-.12-1.04-.36s-.39-.6-.39-1.09c0-.89.44-1.6,1.33-2.14.89-.54,2-.81,3.33-.81,3.07,0,4.6,1.33,4.6,4v6.58c0,.34.07.59.22.77.15.18.36.26.63.26.26,0,.47-.09.62-.26s.23-.42.23-.72h.48c0,.54-.17.96-.52,1.27-.34.31-.82.46-1.44.46-.71,0-1.3-.2-1.78-.61-.48-.41-.73-1.04-.75-1.9-.37.78-.93,1.4-1.69,1.84-.76.44-1.6.67-2.52.67-.98,0-1.79-.26-2.42-.77ZM21.08,41.25c.44-.25.81-.6,1.12-1.07.31-.47.49-1.03.55-1.69v-2.39h-1.54c-1.26,0-2.2.28-2.82.84s-.93,1.35-.93,2.36c0,.84.2,1.44.6,1.79.4.35.98.53,1.75.53.41,0,.84-.12,1.28-.37Z"/>
      <path class="cls-1" d="M27.55,41.94l1.61-.23v-10.53l-1.61-.23v-.46h3.91v1.77c.97-1.32,2.05-1.98,3.27-1.98.58,0,1.1.15,1.54.45.44.3.67.72.67,1.28,0,.4-.13.73-.39,1-.26.27-.61.4-1.03.4-.49,0-.89-.19-1.2-.57.17-.21.25-.44.25-.69,0-.26-.09-.47-.26-.63-.18-.16-.41-.24-.7-.24-.32,0-.65.15-.99.45-.34.3-.72.76-1.15,1.39v8.6l1.84.23v.46h-5.75v-.46Z"/>
      <path class="cls-1" d="M37.33,42.4v-.46l1.61-.23v-17.02l-1.61-.23v-.46h3.91v11.8l5.27-4.32-2-.53v-.46h4.32v.46l-1.47.53-3.82,3.13,5.38,7.13,1.24.21v.46h-5.38v-.46l1.38-.23-4.32-5.7-.6.51v5.2l1.38.23v.46h-5.29Z"/>
    </g>
  </g>
</svg>