<?xml version="1.0" encoding="UTF-8"?>
<svg id="Layer_2" data-name="Layer 2" xmlns="http://www.w3.org/2000/svg" viewBox="0 0 151.89 34.98">
  <defs>
    <style>
      .cls-1 {
        fill: #fff;
      }
    </style>
  </defs>
  <g id="Layer_1-2" data-name="Layer 1">
    <g>
      <path class="cls-1" d="M0,14.24V.48c0-.32.16-.48.48-.48h5.49c1.21,0,2.14.32,2.79.96s.98,1.56.98,2.75v.94c0,1.3-.6,2.14-1.81,2.52.61.09,1.1.34,1.47.74.37.4.55.98.55,1.73v1.37c0,1.19-.33,2.11-.98,2.75s-1.58.96-2.77.96H.48c-.32,0-.48-.16-.48-.48ZM3.16,5.98h2.34c.49,0,.85-.1,1.08-.31.23-.21.34-.55.34-1.02v-.89c0-.47-.11-.81-.33-1.02-.22-.21-.58-.31-1.06-.31h-2.36c-.17,0-.25.08-.25.25v3.04c0,.17.08.25.25.25ZM3.16,12.3h2.56c.5,0,.87-.1,1.09-.31.22-.21.33-.55.33-1.02v-1.33c0-.47-.11-.81-.34-1.01-.23-.2-.6-.3-1.12-.3h-2.52c-.17,0-.25.08-.25.25v3.46c0,.17.08.25.25.25Z"/>
      <path class="cls-1" d="M16.85,14.72h-1.95c-.32,0-.48-.16-.48-.48V.48c0-.32.16-.48.48-.48h5.45c1.19,0,2.12.33,2.79.98.67.66,1.01,1.58,1.01,2.77v1.79c0,1.73-.68,2.87-2.04,3.43v.09l2.45,5.11c.14.37,0,.55-.39.55h-1.85c-.27,0-.47-.03-.6-.09-.12-.06-.22-.19-.3-.39l-2.29-4.95h-1.53c-.18,0-.27.08-.27.25v4.69c0,.32-.16.48-.48.48ZM17.58,6.96h2.24c.49,0,.85-.1,1.08-.31s.34-.54.34-1v-1.79c0-.47-.11-.82-.34-1.03s-.59-.32-1.08-.32h-2.24c-.17,0-.25.08-.25.25v3.94c0,.17.08.25.25.25Z"/>
      <path class="cls-1" d="M36.63,14.72h-7.49c-.32,0-.48-.16-.48-.48V.48c0-.32.16-.48.48-.48h7.49c.31,0,.46.16.46.48v1.56c0,.32-.15.48-.46.48h-4.79c-.18,0-.27.08-.27.25v2.98c0,.17.09.25.27.25h3.92c.32,0,.48.16.48.48v1.56c0,.32-.16.48-.48.48h-3.92c-.18,0-.27.08-.27.25v3.18c0,.17.09.25.27.25h4.79c.31,0,.46.16.46.48v1.56c0,.32-.15.48-.46.48Z"/>
      <path class="cls-1" d="M47.39,14.72h-2.5c-1.21,0-2.14-.32-2.79-.96s-.98-1.56-.98-2.77V3.73c0-1.21.33-2.13.98-2.77s1.59-.96,2.79-.96h2.5c1.19,0,2.12.32,2.78.97.66.65,1,1.57,1,2.76v1.08c0,.34-.17.5-.5.5h-1.92c-.32,0-.48-.17-.48-.5v-.94c0-.49-.1-.84-.31-1.04s-.55-.31-1.04-.31h-1.56c-.47,0-.81.1-1.02.31s-.31.55-.31,1.04v6.98c0,.49.1.84.31,1.04s.55.31,1.02.31h1.56c.49,0,.84-.1,1.04-.31s.31-.55.31-1.04v-.94c0-.34.16-.5.48-.5h1.92c.34,0,.5.17.5.5v1.08c0,1.19-.33,2.11-1,2.76-.66.65-1.59.97-2.78.97Z"/>
      <path class="cls-1" d="M57.81,14.72h-1.95c-.32,0-.48-.16-.48-.48V.48c0-.32.16-.48.48-.48h1.95c.32,0,.48.16.48.48v6.53h.05c.12-.37.36-.84.71-1.42l3.48-5.11c.2-.32.5-.48.89-.48h2.24c.17,0,.27.05.31.15.04.1,0,.23-.13.38l-4.35,6.02,4.85,7.6c.11.18.13.32.06.42-.07.1-.21.15-.42.15h-1.67c-.53,0-.89-.16-1.08-.48l-3.5-5.61-1.44,1.69v3.92c0,.32-.16.48-.48.48Z"/>
      <path class="cls-1" d="M72.9.48v13.76c0,.32-.16.48-.48.48h-1.95c-.32,0-.48-.16-.48-.48V.48c0-.32.16-.48.48-.48h1.95c.32,0,.48.16.48.48Z"/>
      <path class="cls-1" d="M80.09,14.72h-1.9c-.32,0-.48-.16-.48-.48V.48c0-.32.16-.48.48-.48h1.72c.32,0,.53.11.64.32l4.62,8.68h.09V.48c0-.32.16-.48.48-.48h1.9c.32,0,.48.16.48.48v13.76c0,.32-.16.48-.48.48h-1.67c-.34,0-.58-.15-.73-.46l-4.58-8.52h-.09v8.49c0,.32-.16.48-.48.48Z"/>
      <path class="cls-1" d="M95.25,14.72h-1.95c-.32,0-.48-.16-.48-.48V.48c0-.32.16-.48.48-.48h5.45c1.19,0,2.12.33,2.79.98.67.66,1.01,1.58,1.01,2.77v1.79c0,1.73-.68,2.87-2.04,3.43v.09l2.45,5.11c.14.37,0,.55-.39.55h-1.85c-.27,0-.47-.03-.6-.09-.12-.06-.22-.19-.3-.39l-2.29-4.95h-1.53c-.18,0-.27.08-.27.25v4.69c0,.32-.16.48-.48.48ZM95.98,6.96h2.24c.49,0,.85-.1,1.08-.31s.34-.54.34-1v-1.79c0-.47-.11-.82-.34-1.03s-.59-.32-1.08-.32h-2.24c-.17,0-.25.08-.25.25v3.94c0,.17.08.25.25.25Z"/>
      <path class="cls-1" d="M110.08.48v13.76c0,.32-.16.48-.48.48h-1.95c-.32,0-.48-.16-.48-.48V.48c0-.32.16-.48.48-.48h1.95c.32,0,.48.16.48.48Z"/>
      <path class="cls-1" d="M114.89,14.24V.48c0-.32.16-.48.48-.48h5.66c1.19,0,2.12.32,2.78.97.66.65,1,1.57,1,2.76v7.26c0,1.19-.33,2.11-1,2.76-.66.65-1.59.97-2.78.97h-5.66c-.32,0-.48-.16-.48-.48ZM118.05,12.2h2.5c.49,0,.84-.1,1.04-.31s.31-.55.31-1.04V3.87c0-.49-.1-.84-.31-1.04s-.55-.31-1.04-.31h-2.5c-.17,0-.25.08-.25.25v9.18c0,.17.08.25.25.25Z"/>
      <path class="cls-1" d="M135.24,14.72h-2.43c-1.21,0-2.14-.32-2.79-.96s-.98-1.56-.98-2.77V3.73c0-1.21.33-2.13.98-2.77s1.59-.96,2.79-.96h2.43c1.19,0,2.11.32,2.77.97.66.65.98,1.57.98,2.76v.69c0,.34-.16.5-.48.5h-1.95c-.32,0-.48-.17-.48-.5v-.55c0-.49-.1-.84-.3-1.04-.2-.21-.54-.31-1.03-.31h-1.49c-.47,0-.81.1-1.02.31s-.31.55-.31,1.04v6.98c0,.49.1.84.31,1.04s.55.31,1.02.31h1.49c.49,0,.83-.1,1.03-.31.2-.21.3-.55.3-1.04v-1.44c0-.17-.08-.25-.25-.25h-1.37c-.32,0-.48-.16-.48-.48v-1.56c0-.32.16-.48.48-.48h4.01c.35,0,.53.18.53.53v3.82c0,1.19-.33,2.11-.98,2.76-.66.65-1.58.97-2.77.97Z"/>
      <path class="cls-1" d="M151.43,14.72h-7.49c-.32,0-.48-.16-.48-.48V.48c0-.32.16-.48.48-.48h7.49c.31,0,.46.16.46.48v1.56c0,.32-.15.48-.46.48h-4.79c-.18,0-.27.08-.27.25v2.98c0,.17.09.25.27.25h3.92c.32,0,.48.16.48.48v1.56c0,.32-.16.48-.48.48h-3.92c-.18,0-.27.08-.27.25v3.18c0,.17.09.25.27.25h4.79c.31,0,.46.16.46.48v1.56c0,.32-.15.48-.46.48Z"/>
      <path class="cls-1" d="M47.74,34.98h-1.65c-.27,0-.41-.14-.41-.41v-11.64c0-.27.14-.41.41-.41h4.73c1.01,0,1.79.27,2.34.82.56.55.83,1.33.83,2.33v1.86c0,1.01-.28,1.79-.83,2.33-.56.55-1.34.82-2.34.82h-2.44c-.15,0-.23.07-.23.21v3.66c0,.27-.14.41-.41.41ZM48.36,28.54h2.05c.41,0,.7-.09.87-.26.17-.17.25-.46.25-.86v-1.63c0-.41-.08-.71-.25-.88-.17-.17-.46-.26-.87-.26h-2.05c-.14,0-.21.07-.21.21v3.47c0,.14.07.21.21.21Z"/>
      <path class="cls-1" d="M62.58,34.98h-2.17c-1.02,0-1.81-.27-2.36-.81s-.83-1.32-.83-2.34v-6.14c0-1.02.28-1.8.83-2.34s1.34-.81,2.36-.81h2.17c1.02,0,1.81.27,2.36.81s.83,1.32.83,2.34v6.14c0,1.02-.28,1.8-.83,2.34s-1.34.81-2.36.81ZM60.8,32.85h1.38c.41,0,.71-.09.88-.26s.26-.47.26-.88v-5.91c0-.41-.09-.71-.26-.88s-.47-.26-.88-.26h-1.38c-.41,0-.7.09-.87.26-.17.17-.25.47-.25.88v5.91c0,.41.08.71.25.88.17.17.46.26.87.26Z"/>
      <path class="cls-1" d="M72.11,22.93v11.64c0,.27-.14.41-.41.41h-1.65c-.27,0-.41-.14-.41-.41v-11.64c0-.27.14-.41.41-.41h1.65c.27,0,.41.14.41.41Z"/>
      <path class="cls-1" d="M78.2,34.98h-1.61c-.27,0-.41-.14-.41-.41v-11.64c0-.27.14-.41.41-.41h1.45c.27,0,.45.09.54.27l3.91,7.34h.08v-7.21c0-.27.14-.41.41-.41h1.61c.27,0,.41.14.41.41v11.64c0,.27-.14.41-.41.41h-1.41c-.28,0-.49-.13-.62-.39l-3.88-7.21h-.08v7.19c0,.27-.14.41-.41.41Z"/>
      <path class="cls-1" d="M92.82,34.98h-1.63c-.28,0-.43-.14-.43-.41v-9.71c0-.14-.07-.21-.21-.21h-2.21c-.27,0-.41-.14-.41-.41v-1.32c0-.27.14-.41.41-.41h7.32c.27,0,.41.14.41.41v1.32c0,.27-.14.41-.41.41h-2.21c-.15,0-.23.07-.23.21v9.71c0,.27-.14.41-.41.41Z"/>
      <path class="cls-1" d="M105.75,34.98h-6.33c-.27,0-.41-.14-.41-.41v-11.64c0-.27.14-.41.41-.41h6.33c.26,0,.39.14.39.41v1.32c0,.27-.13.41-.39.41h-4.05c-.15,0-.23.07-.23.21v2.52c0,.14.08.21.23.21h3.31c.27,0,.41.14.41.41v1.32c0,.27-.14.41-.41.41h-3.31c-.15,0-.23.07-.23.21v2.69c0,.14.08.21.23.21h4.05c.26,0,.39.14.39.41v1.32c0,.27-.13.41-.39.41Z"/>
    </g>
  </g>
</svg>