<?xml version="1.0" encoding="UTF-8"?>
<svg id="Layer_2" data-name="Layer 2" xmlns="http://www.w3.org/2000/svg" viewBox="0 0 146.95 48.83">
  <defs>
    <style>
      .cls-1 {
        fill: #fff;
      }
    </style>
  </defs>
  <g id="Layer_1-2" data-name="Layer 1">
    <g>
      <path class="cls-1" d="M.15.38h3.8c.1,0,.15.07.15.21s-.02.22-.05.25-.08.05-.15.08-.14.09-.24.19-.2.28-.31.54-.16.53-.16.79v5.33h13.29V2.43c0-.57-.19-1.04-.56-1.42-.03-.03-.1-.07-.2-.12s-.15-.14-.15-.29.05-.22.15-.22h3.8c.1,0,.15.07.15.21s-.02.22-.05.25-.08.05-.15.08-.14.09-.24.19-.2.28-.31.54-.16.53-.16.79v15.09c0,.57.19,1.04.56,1.42.03.03.1.07.2.12s.15.14.15.29-.05.22-.15.22h-3.8c-.1,0-.15-.07-.15-.21s.02-.22.05-.25.08-.05.15-.08.14-.09.24-.19.2-.28.31-.54.16-.53.16-.79v-7.82H3.19v7.82c0,.57.19,1.04.56,1.42.03.03.1.07.2.12s.15.14.15.29-.05.22-.15.22H.15c-.1,0-.15-.07-.15-.21s.02-.22.05-.25.08-.05.15-.08.14-.09.24-.19.2-.28.31-.54.16-.53.16-.79V2.43c0-.57-.19-1.04-.56-1.42-.03-.03-.1-.07-.2-.12s-.15-.14-.15-.29.05-.22.15-.22Z"/>
      <path class="cls-1" d="M23.35.38h3.8c.1,0,.15.07.15.21s-.02.22-.05.25-.08.05-.15.08-.14.09-.24.19-.2.28-.31.54-.16.53-.16.79v15.09c0,.57.19,1.04.56,1.42.03.03.1.07.2.12s.15.14.15.29-.05.22-.15.22h-3.8c-.1,0-.15-.07-.15-.21s.02-.22.05-.25.08-.05.15-.08.14-.09.24-.19c.1-.1.2-.28.31-.54s.16-.53.16-.79V2.43c0-.57-.19-1.04-.56-1.42-.03-.03-.1-.07-.2-.12s-.15-.14-.15-.29.05-.22.15-.22Z"/>
      <path class="cls-1" d="M47.35,17.45c0,.08-.06.12-.17.12s-.19,0-.23.02c-.83.66-1.84,1.24-3.02,1.72s-2.45.72-3.77.72-2.61-.28-3.86-.83-2.29-1.29-3.14-2.21-1.52-2-2.01-3.24-.73-2.52-.73-3.85.26-2.6.79-3.81,1.23-2.27,2.12-3.15,1.93-1.6,3.14-2.13,2.43-.8,3.67-.8c1.47,0,2.95.28,4.44.84l.54.21c.08.03.19,0,.33-.09s.29-.14.45-.14.28.07.36.22c.03.02.04.11.04.25-.02.22.08.74.28,1.57l.29,1.27c.08.34.12.56.12.66,0,.05-.1.12-.3.22s-.31.12-.35.06c-.65-1.13-1.46-1.91-2.44-2.34s-2.2-.64-3.67-.64-2.79.33-3.97,1-2.09,1.59-2.73,2.77-.96,2.53-.96,4.03c0,.98.23,1.98.68,2.98s1.04,1.88,1.75,2.64,1.54,1.38,2.49,1.86,1.86.72,2.73.72,1.84-.22,2.89-.66,1.71-.81,1.97-1.12v-4.79c0-.57-.19-1.04-.56-1.42-.03-.03-.1-.07-.2-.12s-.15-.14-.15-.29.05-.22.15-.22h3.8c.1,0,.15.07.15.21s-.02.22-.05.25-.08.05-.15.08-.14.09-.24.19-.2.28-.31.54-.16.53-.16.79v5.95Z"/>
      <path class="cls-1" d="M51.63.38h3.8c.1,0,.15.07.15.21s-.02.22-.05.25-.08.05-.15.08-.14.09-.24.19-.2.28-.31.54-.16.53-.16.79v5.33h13.29V2.43c0-.57-.19-1.04-.56-1.42-.03-.03-.1-.07-.2-.12s-.15-.14-.15-.29.05-.22.15-.22h3.8c.1,0,.15.07.15.21s-.02.22-.05.25-.08.05-.15.08-.14.09-.24.19-.2.28-.31.54-.16.53-.16.79v15.09c0,.57.19,1.04.56,1.42.03.03.1.07.2.12s.15.14.15.29-.05.22-.15.22h-3.8c-.1,0-.15-.07-.15-.21s.02-.22.05-.25.08-.05.15-.08.14-.09.24-.19.2-.28.31-.54.16-.53.16-.79v-7.82h-13.29v7.82c0,.57.19,1.04.56,1.42.03.03.1.07.2.12s.15.14.15.29-.05.22-.15.22h-3.8c-.1,0-.15-.07-.15-.21s.02-.22.05-.25.08-.05.15-.08.14-.09.24-.19.2-.28.31-.54.16-.53.16-.79V2.43c0-.57-.19-1.04-.56-1.42-.03-.03-.1-.07-.2-.12s-.15-.14-.15-.29.05-.22.15-.22Z"/>
      <path class="cls-1" d="M91.19,17.45c0,.08-.06.12-.17.12s-.19,0-.23.02c-.83.66-1.84,1.24-3.02,1.72s-2.45.72-3.77.72-2.61-.28-3.86-.83-2.29-1.29-3.14-2.21-1.52-2-2.01-3.24-.73-2.52-.73-3.85.26-2.6.79-3.81,1.23-2.27,2.12-3.15,1.93-1.6,3.14-2.13,2.43-.8,3.67-.8c1.47,0,2.95.28,4.44.84l.54.21c.08.03.19,0,.33-.09s.29-.14.45-.14.28.07.36.22c.03.02.04.11.04.25-.02.22.08.74.28,1.57l.29,1.27c.08.34.12.56.12.66,0,.05-.1.12-.3.22s-.31.12-.35.06c-.65-1.13-1.46-1.91-2.44-2.34s-2.2-.64-3.67-.64-2.79.33-3.97,1-2.09,1.59-2.73,2.77-.96,2.53-.96,4.03c0,.98.23,1.98.68,2.98s1.04,1.88,1.75,2.64,1.54,1.38,2.49,1.86,1.86.72,2.73.72,1.84-.22,2.89-.66,1.71-.81,1.97-1.12v-4.79c0-.57-.19-1.04-.56-1.42-.03-.03-.1-.07-.2-.12s-.15-.14-.15-.29.05-.22.15-.22h3.8c.1,0,.15.07.15.21s-.02.22-.05.25-.08.05-.15.08-.14.09-.24.19-.2.28-.31.54-.16.53-.16.79v5.95Z"/>
      <path class="cls-1" d="M94.98,17.78L102.69.52c.04-.09.23-.14.57-.14s.54.05.59.14l7.95,17.26c.3.71.61,1.14.9,1.28.1.05.15.14.15.29s-.05.22-.15.22h-4.24c-.1,0-.15-.07-.15-.21s.02-.22.05-.25.08-.05.15-.08.11-.06.15-.1c.3-.3.45-.57.45-.83s-.03-.46-.08-.63l-1.7-4.02h-8.45l-1.66,4.02c-.05.16-.08.29-.08.38v.15c0,.32.15.63.45.93.03.03.1.07.2.12s.15.14.15.29-.05.22-.15.22h-3.69c-.1,0-.15-.07-.15-.21s.02-.22.05-.25.08-.06.15-.09c.26-.11.54-.53.86-1.25ZM99.7,11.6s-.02.05-.01.09.02.05.05.05h6.69s.04-.02.05-.05,0-.06-.01-.09l-3.39-7.36h-.08l-3.29,7.36Z"/>
      <path class="cls-1" d="M130.19.38c.08,0,.14.1.2.3s.15.48.29.84l.38.95c.11.27.16.43.16.46s-.06.07-.17.11c-.11.04-.19.06-.22.06-.05,0-.12-.06-.21-.17s-.22-.25-.42-.4-.74-.23-1.62-.23h-6.6v15.25c0,.57.19,1.04.56,1.42.03.03.1.07.2.12s.15.14.15.29-.05.22-.15.22h-3.8c-.1,0-.15-.07-.15-.21s.02-.22.05-.25.08-.05.15-.08.14-.09.24-.19.2-.28.31-.54.16-.53.16-.79V2.27h-6.6c-1.1,0-1.77.19-1.99.56-.11.16-.19.24-.23.24s-.13-.01-.24-.05-.17-.07-.17-.11.05-.18.16-.46l.38-.95c.14-.35.24-.62.29-.8s.12-.29.21-.33h18.68Z"/>
      <path class="cls-1" d="M143.92,8.09c.57,0,1.04-.19,1.42-.56.03-.03.07-.1.12-.2s.14-.15.29-.15.22.05.22.15v3.4c0,.1-.07.15-.21.15s-.22-.02-.25-.05-.05-.08-.08-.15-.09-.14-.19-.24-.28-.2-.54-.3-.53-.15-.79-.15h-7.39v7.69h7.78c.88,0,1.42-.08,1.62-.23s.34-.29.42-.4.14-.18.19-.18.12.02.23.06.17.07.17.11-.05.18-.16.46l-.38.95c-.14.36-.24.63-.29.81s-.12.29-.21.32h-12.42c-.1,0-.15-.07-.15-.21s.02-.22.05-.25.08-.05.15-.08.14-.09.24-.19.2-.28.31-.54.16-.53.16-.79V2.43c0-.57-.19-1.04-.56-1.42-.03-.03-.1-.07-.2-.12s-.15-.14-.15-.29.05-.22.15-.22h12.42c.08,0,.14.1.2.3s.15.48.29.84l.38.95c.11.27.16.43.16.46s-.06.07-.17.11-.19.06-.22.06-.07-.02-.11-.06-.08-.1-.13-.18-.18-.19-.38-.34-.74-.23-1.62-.23h-7.78v5.81h7.39Z"/>
      <path class="cls-1" d="M22.89,48.23c-.23-.05-.49-.13-.77-.22s-.46-.13-.54-.13h-.14c-.27,0-.48.16-.63.47,0,.02-.02.02-.02.02h-.34s-.07-.02-.08-.06l-1.01-3.46c-.04-.16.08-.25.35-.25.11,0,.18.02.22.06s.07.07.08.09.05.07.11.16c1.03,1.27,2.54,1.91,4.54,1.91,1.05,0,1.92-.28,2.61-.83s1.04-1.36,1.04-2.43c0-.72-.12-1.26-.35-1.61s-.42-.62-.57-.8c-.31-.38-1.06-.91-2.24-1.58s-2.14-1.27-2.88-1.8c-1.88-1.35-2.81-2.74-2.81-4.17s.45-2.54,1.34-3.32,2.08-1.17,3.56-1.17c.83,0,1.7.22,2.62.67.44.21.76.35.96.42s.34.03.42-.12.12-.23.14-.23c.35-.04.53.02.53.16l.35,3.76c0,.07-.18.11-.54.11-.05,0-.1-.07-.14-.21-.24-.8-.81-1.46-1.7-1.99s-1.78-.79-2.67-.79c-1.89,0-2.84.78-2.84,2.34,0,1.13,1.02,2.26,3.07,3.39l2.23,1.2c1.37.76,2.33,1.58,2.88,2.46s.83,1.82.83,2.82v.12c-.2,1.34-.43,2.26-.7,2.74-.45.8-1.1,1.44-1.93,1.92s-1.79.72-2.85.72c-.59-.02-1.07-.08-1.44-.18l-.67-.19Z"/>
      <path class="cls-1" d="M36.07,31.68v14.64c0,.57.19,1.04.56,1.42.03.03.1.07.2.12s.15.14.15.29-.05.22-.15.22h-3.8c-.1,0-.15-.07-.15-.21s.02-.22.05-.25.08-.05.15-.08.14-.09.24-.19.2-.28.31-.54.16-.53.16-.79v-15.09c0-.57-.19-1.04-.56-1.42-.03-.03-.1-.07-.2-.12s-.15-.14-.15-.29.05-.22.15-.22h6.4c1.05,0,2.04.21,2.95.62s1.65,1.02,2.22,1.82.86,1.76.86,2.87-.26,2.04-.77,2.79c-1.02,1.45-3.11,2.18-6.29,2.17h-1.57c-.1,0-.15-.11-.15-.33v-.98c0-.22.05-.33.15-.33h1.57c3.23,0,4.84-1.14,4.84-3.43,0-.84-.24-1.49-.73-1.96-.8-.77-1.8-1.21-3.02-1.32h-2.7c-.17,0-.33.07-.49.21s-.23.27-.23.4Z"/>
      <path class="cls-1" d="M51.98,31.1c-.16,0-.3.06-.42.17s-.18.25-.18.42v14.64c0,.57.19,1.04.56,1.42.03.03.1.07.2.12s.15.14.15.29-.05.22-.15.22h-3.8c-.1,0-.15-.07-.15-.21s.02-.22.05-.25.08-.05.15-.08.14-.09.24-.19.2-.28.31-.54.16-.53.16-.79v-15.09c0-.57-.19-1.04-.56-1.42-.03-.03-.1-.07-.2-.12s-.15-.14-.15-.28.05-.21.15-.21h6.01c1.72.02,3.16.38,4.32,1.11s1.74,1.9,1.74,3.52c0,1.91-1,3.32-3,4.21-.73.33-1.29.51-1.68.54s-.57.06-.57.09l.38.21c.16.09.48.33.96.71s.96.81,1.44,1.29,1.04,1.15,1.7,2,1.14,1.55,1.45,2.09l.96,1.71c.35.64.64.99.88,1.05s.35.18.35.36-.05.27-.15.27h-3.8c-.1,0-.15-.07-.15-.21s.02-.22.05-.25.08-.05.15-.08.12-.06.16-.11.06-.14.06-.28-.02-.24-.05-.32c-.57-1.47-1.35-2.87-2.33-4.2-1.83-2.47-3.4-3.8-4.72-3.98-.19-.03-.28-.05-.28-.06-.02-.14-.02-.33-.02-.57v-.71c0-.08.04-.12.12-.12,1.92,0,3.42-.39,4.5-1.16.83-.59,1.24-1.38,1.24-2.37s-.4-1.72-1.2-2.17-1.7-.69-2.71-.69h-2.17Z"/>
      <path class="cls-1" d="M65.69,29.17h3.8c.1,0,.15.07.15.21s-.02.22-.05.25-.08.05-.15.08-.14.09-.24.19-.2.28-.31.54-.16.53-.16.79v15.09c0,.57.19,1.04.56,1.42.03.03.1.07.2.12s.15.14.15.29-.05.22-.15.22h-3.8c-.1,0-.15-.07-.15-.21s.02-.22.05-.25.08-.05.15-.08.14-.09.24-.19.2-.28.31-.54.16-.53.16-.79v-15.09c0-.57-.19-1.04-.56-1.42-.03-.03-.1-.07-.2-.12s-.15-.14-.15-.29.05-.22.15-.22Z"/>
      <path class="cls-1" d="M76.24,29.17c.07,0,.14.03.2.09l13.1,13.9h.08v-11.94c0-.56-.19-1.04-.57-1.42-.03-.03-.1-.07-.2-.12s-.15-.14-.15-.29.05-.22.15-.22h3.83c.1,0,.15.07.15.21s-.02.22-.05.25-.08.05-.15.08-.14.09-.25.19-.21.28-.32.54-.17.52-.17.79v16.52c0,.29-.04.46-.11.53s-.19.09-.36.09-.3-.05-.4-.14l-14.73-15.63v13.72c0,.6.17,1.07.52,1.42.03.03.1.07.2.12s.15.14.15.29-.05.22-.15.22h-3.77c-.1,0-.15-.07-.15-.21s.02-.22.05-.25.08-.05.15-.08.11-.06.15-.1c.39-.39.59-.86.59-1.42v-15.09c0-.58-.18-1.05-.55-1.42-.03-.03-.1-.07-.2-.12s-.15-.14-.15-.29.05-.22.15-.22h2.97Z"/>
      <path class="cls-1" d="M112.8,46.25c0,.08-.06.12-.17.12s-.19,0-.23.02c-.83.66-1.84,1.24-3.02,1.72s-2.45.72-3.77.72-2.61-.28-3.86-.83-2.29-1.29-3.14-2.21-1.52-2-2.01-3.24-.73-2.52-.73-3.85.26-2.6.79-3.81,1.23-2.27,2.12-3.15,1.93-1.6,3.14-2.13,2.43-.8,3.67-.8c1.47,0,2.95.28,4.44.84l.54.21c.08.03.19,0,.33-.09s.29-.14.45-.14.28.07.36.22c.03.02.04.11.04.25-.02.22.08.74.28,1.57l.29,1.27c.08.34.12.56.12.66,0,.05-.1.12-.3.22s-.31.12-.35.06c-.65-1.13-1.46-1.91-2.44-2.34s-2.2-.64-3.67-.64-2.79.33-3.97,1-2.09,1.59-2.73,2.77-.96,2.53-.96,4.03c0,.98.23,1.98.68,2.98s1.04,1.88,1.75,2.64,1.54,1.38,2.49,1.86,1.86.72,2.73.72,1.84-.22,2.89-.66,1.71-.81,1.97-1.12v-4.79c0-.57-.19-1.04-.56-1.42-.03-.03-.1-.07-.2-.12s-.15-.14-.15-.29.05-.22.15-.22h3.8c.1,0,.15.07.15.21s-.02.22-.05.25-.08.05-.15.08-.14.09-.24.19-.2.28-.31.54-.16.53-.16.79v5.95Z"/>
      <path class="cls-1" d="M119.65,48.23c-.23-.05-.49-.13-.77-.22s-.46-.13-.54-.13h-.14c-.27,0-.48.16-.63.47,0,.02-.02.02-.02.02h-.34s-.07-.02-.08-.06l-1.01-3.46c-.04-.16.08-.25.35-.25.11,0,.18.02.22.06s.07.07.08.09.05.07.11.16c1.03,1.27,2.54,1.91,4.54,1.91,1.05,0,1.92-.28,2.61-.83s1.04-1.36,1.04-2.43c0-.72-.12-1.26-.35-1.61s-.42-.62-.57-.8c-.31-.38-1.06-.91-2.24-1.58s-2.14-1.27-2.88-1.8c-1.88-1.35-2.81-2.74-2.81-4.17s.45-2.54,1.34-3.32,2.08-1.17,3.56-1.17c.83,0,1.7.22,2.62.67.44.21.76.35.96.42s.34.03.42-.12.12-.23.14-.23c.35-.04.53.02.53.16l.35,3.76c0,.07-.18.11-.54.11-.05,0-.1-.07-.14-.21-.24-.8-.81-1.46-1.7-1.99s-1.78-.79-2.67-.79c-1.89,0-2.84.78-2.84,2.34,0,1.13,1.02,2.26,3.07,3.39l2.23,1.2c1.37.76,2.33,1.58,2.88,2.46s.83,1.82.83,2.82v.12c-.2,1.34-.43,2.26-.7,2.74-.45.8-1.1,1.44-1.93,1.92s-1.79.72-2.85.72c-.59-.02-1.07-.08-1.44-.18l-.67-.19Z"/>
    </g>
  </g>
</svg>