<?xml version="1.0" encoding="UTF-8"?>
<svg id="Layer_2" data-name="Layer 2" xmlns="http://www.w3.org/2000/svg" viewBox="0 0 153.26 38.98">
  <defs>
    <style>
      .cls-1 {
        fill: #fff;
      }
    </style>
  </defs>
  <g id="Layer_1-2" data-name="Layer 1">
    <g>
      <path class="cls-1" d="M11.26,14.44c-.21.12-.46.2-.75.25-.29.05-.58.07-.89.07v-7.02H1.64v6.7c-.21.12-.46.2-.75.25-.29.05-.58.07-.89.07V.56C.45.32,1,.2,1.64.2v6.6h7.98V.56c.45-.24,1-.36,1.64-.36v14.24Z"/>
      <path class="cls-1" d="M17.24,9.14c0,.85.1,1.58.31,2.17.21.59.5,1.08.88,1.45.38.37.83.64,1.35.81.52.17,1.1.25,1.74.25.84,0,1.52-.14,2.04-.43.52-.29.93-.7,1.23-1.23.3-.53.5-1.18.61-1.95.11-.77.16-1.62.16-2.57,0-1.03-.02-2.14-.05-3.34-.03-1.2-.08-2.47-.13-3.8.23-.11.47-.18.73-.23.26-.05.52-.07.77-.07-.03.84-.04,1.64-.04,2.39s0,1.5-.02,2.23c-.01.73-.03,1.46-.06,2.19-.03.73-.07,1.48-.12,2.25-.08,1.08-.29,1.98-.62,2.71s-.75,1.31-1.26,1.76c-.51.45-1.1.76-1.77.95-.67.19-1.39.28-2.15.28-.71,0-1.38-.1-2.01-.3-.63-.2-1.19-.51-1.67-.93-.48-.42-.86-.96-1.14-1.62-.28-.66-.42-1.45-.42-2.37V.56c.45-.24,1-.36,1.64-.36v8.94Z"/>
      <path class="cls-1" d="M30.92.78c.59-.21,1.28-.4,2.07-.55.79-.15,1.6-.23,2.41-.23.91,0,1.68.1,2.31.31.63.21,1.15.49,1.55.84.4.35.69.76.87,1.23.18.47.27.96.27,1.48,0,.64-.12,1.2-.36,1.69-.24.49-.55.91-.93,1.26-.38.35-.82.65-1.31.88-.49.23-.99.41-1.48.53.23.15.44.33.64.55.2.22.41.48.64.77l1.98,2.56c.41.53.79.99,1.14,1.38.35.39.64.68.88.88v.12c-.19.09-.46.16-.82.21-.36.05-.7.07-1.02.07-.13-.05-.31-.2-.53-.43-.22-.23-.52-.63-.91-1.19l-2.36-3.34c-.17-.24-.34-.45-.49-.62-.15-.17-.32-.32-.5-.43-.18-.11-.39-.19-.62-.24s-.52-.07-.85-.07h-.94v6c-.21.12-.46.2-.75.25-.29.05-.58.07-.89.07V.78ZM34.68.92c-.32,0-.67.02-1.04.06-.37.04-.73.1-1.08.18v6.2c.23.07.49.12.79.16s.64.06,1.03.06c1.31,0,2.34-.27,3.1-.8s1.14-1.35,1.14-2.46c0-.48-.08-.93-.24-1.35-.16-.42-.4-.78-.73-1.08-.33-.3-.74-.54-1.23-.71-.49-.17-1.07-.26-1.74-.26Z"/>
      <path class="cls-1" d="M43.36,11.58c.13-.2.35-.39.66-.56.31-.17.61-.27.9-.28.04.37.15.75.32,1.13.17.38.42.72.75,1.02.33.3.73.55,1.21.74.48.19,1.05.29,1.72.29.97,0,1.75-.25,2.32-.75.57-.5.86-1.16.86-1.97s-.2-1.41-.6-1.92c-.4-.51-1.13-.89-2.18-1.16l-1.88-.48c-.48-.12-.93-.26-1.36-.42-.43-.16-.8-.37-1.12-.63-.32-.26-.57-.58-.75-.96-.18-.38-.27-.84-.27-1.39s.13-1.07.4-1.58.64-.96,1.11-1.35c.47-.39,1.03-.71,1.66-.95.63-.24,1.32-.36,2.05-.36s1.36.09,1.88.28c.52.19.94.41,1.26.68.32.27.56.56.71.87.15.31.24.59.27.83-.09.19-.27.36-.52.51-.25.15-.55.25-.88.29-.05-.29-.15-.58-.3-.87-.15-.29-.36-.55-.63-.78-.27-.23-.61-.42-1.01-.57-.4-.15-.87-.22-1.42-.22-.91,0-1.63.24-2.18.71-.55.47-.82,1.1-.82,1.87,0,.44.07.8.2,1.09.13.29.32.53.56.72.24.19.52.35.85.47.33.12.68.23,1.07.32l1.76.44c.73.19,1.34.41,1.83.68.49.27.87.56,1.15.88.28.32.48.67.59,1.05.11.38.17.77.17,1.17,0,.6-.13,1.17-.38,1.72-.25.55-.62,1.03-1.1,1.45-.48.42-1.06.75-1.73,1-.67.25-1.43.37-2.27.37s-1.52-.11-2.12-.32c-.6-.21-1.1-.48-1.5-.81-.4-.33-.7-.69-.91-1.09-.21-.4-.32-.79-.33-1.16Z"/>
      <path class="cls-1" d="M67.12.24c-.03.27-.1.52-.21.76-.11.24-.24.41-.37.52-.6-.05-1.31-.12-2.12-.21-.81-.09-1.59-.16-2.34-.23v13.36c-.21.12-.46.2-.75.25-.29.05-.58.07-.89.07V1.08c-.4.04-.83.08-1.3.13-.47.05-.93.09-1.38.13-.45.04-.88.08-1.29.11-.41.03-.75.06-1.03.07.03-.29.09-.55.19-.77.1-.22.22-.39.37-.51h11.12Z"/>
      <path class="cls-1" d="M69.72.86c.56-.2,1.23-.39,2.02-.58.79-.19,1.65-.28,2.58-.28s1.67.1,2.28.3c.61.2,1.11.46,1.48.78s.64.69.8,1.1c.16.41.24.83.24,1.24,0,.47-.08.9-.23,1.29-.15.39-.36.74-.61,1.04-.25.3-.55.56-.88.77-.33.21-.69.38-1.06.5,1.19.23,2.07.65,2.64,1.26s.86,1.36.86,2.24c0,.68-.16,1.3-.48,1.85s-.77,1.02-1.34,1.41-1.26.68-2.05.89c-.79.21-1.66.31-2.59.31-.68,0-1.33-.03-1.94-.1-.61-.07-1.19-.15-1.72-.26V.86ZM74.44,6.82c.41-.01.8-.09,1.16-.23.36-.14.67-.33.93-.58s.47-.55.62-.9c.15-.35.23-.76.23-1.21,0-.95-.3-1.68-.91-2.2-.61-.52-1.55-.78-2.83-.78-.44,0-.85.02-1.24.07s-.73.1-1.04.17v5.8c.35-.04.75-.07,1.2-.1.45-.03.98-.04,1.58-.04h.3ZM73.7,7.74c-.49,0-.93,0-1.31.03s-.72.06-1.03.11v5.76c.39.12.83.22,1.33.29s.98.11,1.45.11c.57,0,1.1-.07,1.57-.2.47-.13.88-.33,1.23-.59.35-.26.62-.59.81-.98.19-.39.29-.86.29-1.39,0-.59-.12-1.08-.36-1.48-.24-.4-.56-.72-.97-.97-.41-.25-.87-.42-1.39-.53-.52-.11-1.06-.16-1.62-.16Z"/>
      <path class="cls-1" d="M82.42,7.68c0-1.13.2-2.17.59-3.11.39-.94.92-1.75,1.58-2.43.66-.68,1.43-1.21,2.3-1.58.87-.37,1.8-.56,2.77-.56,1.05,0,1.98.18,2.79.54s1.48.86,2.03,1.5.96,1.39,1.24,2.25c.28.86.42,1.79.42,2.79,0,1.11-.16,2.14-.48,3.1s-.79,1.79-1.4,2.5c-.61.71-1.36,1.27-2.25,1.68-.89.41-1.89.62-3.01.62-.89,0-1.74-.17-2.53-.5-.79-.33-1.49-.82-2.09-1.45-.6-.63-1.08-1.4-1.43-2.3s-.53-1.92-.53-3.05ZM84.2,7.04c0,1.13.14,2.13.43,3,.29.87.67,1.6,1.15,2.19.48.59,1.04,1.04,1.69,1.35.65.31,1.33.46,2.05.46,1.53,0,2.72-.53,3.57-1.58.85-1.05,1.27-2.63,1.27-4.74,0-1.03-.13-1.96-.38-2.79-.25-.83-.61-1.55-1.07-2.14-.46-.59-1.01-1.05-1.66-1.37-.65-.32-1.37-.48-2.17-.48-.64,0-1.26.12-1.85.36-.59.24-1.11.61-1.56,1.11-.45.5-.8,1.13-1.07,1.9-.27.77-.4,1.68-.4,2.73Z"/>
      <path class="cls-1" d="M101.24,9.14c0,.85.1,1.58.31,2.17.21.59.5,1.08.88,1.45.38.37.83.64,1.35.81.52.17,1.1.25,1.74.25.84,0,1.52-.14,2.04-.43.52-.29.93-.7,1.23-1.23s.5-1.18.61-1.95c.11-.77.16-1.62.16-2.57,0-1.03-.02-2.14-.05-3.34-.03-1.2-.08-2.47-.13-3.8.23-.11.47-.18.73-.23.26-.05.52-.07.77-.07-.03.84-.04,1.64-.04,2.39s0,1.5-.02,2.23c-.01.73-.03,1.46-.06,2.19-.03.73-.07,1.48-.12,2.25-.08,1.08-.29,1.98-.62,2.71-.33.73-.75,1.31-1.26,1.76-.51.45-1.1.76-1.77.95-.67.19-1.39.28-2.15.28-.71,0-1.38-.1-2.01-.3-.63-.2-1.19-.51-1.67-.93-.48-.42-.86-.96-1.14-1.62-.28-.66-.42-1.45-.42-2.37V.56c.45-.24,1-.36,1.64-.36v8.94Z"/>
      <path class="cls-1" d="M114.92.78c.59-.21,1.28-.4,2.07-.55.79-.15,1.6-.23,2.41-.23.91,0,1.68.1,2.31.31.63.21,1.15.49,1.55.84.4.35.69.76.87,1.23.18.47.27.96.27,1.48,0,.64-.12,1.2-.36,1.69s-.55.91-.93,1.26c-.38.35-.82.65-1.31.88-.49.23-.99.41-1.48.53.23.15.44.33.64.55.2.22.41.48.64.77l1.98,2.56c.41.53.79.99,1.14,1.38.35.39.64.68.88.88v.12c-.19.09-.46.16-.82.21-.36.05-.7.07-1.02.07-.13-.05-.31-.2-.53-.43-.22-.23-.52-.63-.91-1.19l-2.36-3.34c-.17-.24-.34-.45-.49-.62s-.32-.32-.5-.43c-.18-.11-.39-.19-.62-.24s-.52-.07-.85-.07h-.94v6c-.21.12-.46.2-.75.25-.29.05-.58.07-.89.07V.78ZM118.68.92c-.32,0-.67.02-1.04.06s-.73.1-1.08.18v6.2c.23.07.49.12.79.16.3.04.64.06,1.03.06,1.31,0,2.34-.27,3.1-.8.76-.53,1.14-1.35,1.14-2.46,0-.48-.08-.93-.24-1.35s-.4-.78-.73-1.08c-.33-.3-.74-.54-1.23-.71s-1.07-.26-1.74-.26Z"/>
      <path class="cls-1" d="M139.48,14.56c-.08.07-.2.12-.36.15-.16.03-.3.05-.42.05l-9.28-12.74c.01,1.04.03,2.07.05,3.08.02,1.01.04,2.03.06,3.04.02,1.01.05,2.04.08,3.07.03,1.03.08,2.1.13,3.19-.15.11-.37.19-.66.26-.29.07-.57.1-.84.1.03-1.16.05-2.29.08-3.39s.05-2.22.08-3.36c.03-1.14.05-2.32.08-3.54.03-1.22.06-2.52.1-3.91.23-.11.48-.19.77-.26.29-.07.57-.1.85-.1l8.38,11.6c-.03-1.97-.06-3.91-.09-5.82-.03-1.91-.08-3.71-.15-5.4.23-.13.48-.23.75-.29.27-.06.52-.09.75-.09-.07,2.13-.13,4.41-.18,6.84-.05,2.43-.11,4.93-.18,7.52Z"/>
      <path class="cls-1" d="M143.94,14.76V.72c.45-.25,1-.39,1.64-.42.39-.01.9-.02,1.55-.03.65,0,1.33-.02,2.06-.03s1.44-.02,2.14-.03c.7,0,1.29,0,1.77,0-.03.28-.1.53-.23.76-.13.23-.27.37-.43.44-.45,0-.97,0-1.54-.03s-1.17-.04-1.78-.06-1.23-.04-1.84-.07-1.18-.05-1.7-.08v5.88l6.34-.12c-.03.24-.09.46-.2.66-.11.2-.23.31-.36.34-.97-.01-1.94-.02-2.9-.03-.96,0-1.92-.02-2.88-.05v6.04c1.17-.03,2.39-.07,3.66-.13s2.61-.14,4.02-.23c-.04.31-.12.57-.24.79-.12.22-.25.37-.4.45h-8.68Z"/>
      <path class="cls-1" d="M35.88,26.98c-.11.2-.29.39-.54.56-.25.17-.56.29-.92.34-.07-.32-.18-.65-.33-.99s-.37-.65-.66-.93c-.29-.28-.65-.51-1.08-.7s-.96-.28-1.59-.28c-.56,0-1.12.11-1.68.33-.56.22-1.07.57-1.52,1.05-.45.48-.82,1.1-1.11,1.87-.29.77-.43,1.7-.43,2.79s.15,2.04.44,2.88c.29.84.69,1.54,1.2,2.11.51.57,1.1,1,1.77,1.29.67.29,1.4.44,2.17.44.89,0,1.65-.15,2.27-.45.62-.3,1.14-.7,1.57-1.19.08.03.17.08.28.16s.17.16.2.24c-.11.19-.28.42-.52.7-.24.28-.56.55-.97.81-.41.26-.91.49-1.52.68-.61.19-1.33.29-2.17.29s-1.63-.15-2.4-.45c-.77-.3-1.46-.75-2.06-1.36-.6-.61-1.08-1.37-1.44-2.28-.36-.91-.54-1.98-.54-3.19,0-1.07.19-2.07.58-3.01s.91-1.76,1.57-2.45c.66-.69,1.43-1.24,2.3-1.64.87-.4,1.8-.6,2.79-.6.8,0,1.48.11,2.03.34.55.23,1,.5,1.34.82.34.32.59.65.74.99.15.34.23.62.23.83Z"/>
      <path class="cls-1" d="M39.24,24.78c.59-.21,1.28-.4,2.07-.55.79-.15,1.6-.23,2.41-.23.91,0,1.68.1,2.31.31.63.21,1.15.49,1.55.84.4.35.69.76.87,1.23.18.47.27.96.27,1.48,0,.64-.12,1.2-.36,1.69s-.55.91-.93,1.26c-.38.35-.82.65-1.31.88-.49.23-.99.41-1.48.53.23.15.44.33.64.55.2.22.41.48.64.77l1.98,2.56c.41.53.79.99,1.14,1.38.35.39.64.68.88.88v.12c-.19.09-.46.16-.82.21-.36.05-.7.07-1.02.07-.13-.05-.31-.2-.53-.43-.22-.23-.52-.63-.91-1.19l-2.36-3.34c-.17-.24-.34-.45-.49-.62s-.32-.32-.5-.43c-.18-.11-.39-.19-.62-.24s-.52-.07-.85-.07h-.94v6c-.21.12-.46.2-.75.25-.29.05-.58.07-.89.07v-13.98ZM43,24.92c-.32,0-.67.02-1.04.06s-.73.1-1.08.18v6.2c.23.07.49.12.79.16.3.04.64.06,1.03.06,1.31,0,2.34-.27,3.1-.8.76-.53,1.14-1.35,1.14-2.46,0-.48-.08-.93-.24-1.35s-.4-.78-.73-1.08c-.33-.3-.74-.54-1.23-.71s-1.07-.26-1.74-.26Z"/>
      <path class="cls-1" d="M51.6,31.68c0-1.13.2-2.17.59-3.11.39-.94.92-1.75,1.58-2.43s1.43-1.21,2.3-1.58c.87-.37,1.8-.56,2.77-.56,1.05,0,1.98.18,2.79.54.81.36,1.48.86,2.03,1.5s.96,1.39,1.24,2.25.42,1.79.42,2.79c0,1.11-.16,2.14-.48,3.1-.32.96-.79,1.79-1.4,2.5-.61.71-1.36,1.27-2.25,1.68-.89.41-1.89.62-3.01.62-.89,0-1.74-.17-2.53-.5-.79-.33-1.49-.82-2.09-1.45s-1.08-1.4-1.43-2.3c-.35-.9-.53-1.92-.53-3.05ZM53.38,31.04c0,1.13.14,2.13.43,3,.29.87.67,1.6,1.15,2.19.48.59,1.04,1.04,1.69,1.35.65.31,1.33.46,2.05.46,1.53,0,2.72-.53,3.57-1.58.85-1.05,1.27-2.63,1.27-4.74,0-1.03-.13-1.96-.38-2.79-.25-.83-.61-1.55-1.07-2.14-.46-.59-1.01-1.05-1.66-1.37-.65-.32-1.37-.48-2.17-.48-.64,0-1.26.12-1.85.36-.59.24-1.11.61-1.56,1.11-.45.5-.8,1.13-1.07,1.9-.27.77-.4,1.68-.4,2.73Z"/>
      <path class="cls-1" d="M67.86,35.58c.13-.2.35-.39.66-.56.31-.17.61-.27.9-.28.04.37.15.75.32,1.13.17.38.42.72.75,1.02.33.3.73.55,1.21.74.48.19,1.05.29,1.72.29.97,0,1.75-.25,2.32-.75s.86-1.16.86-1.97-.2-1.41-.6-1.92c-.4-.51-1.13-.89-2.18-1.16l-1.88-.48c-.48-.12-.93-.26-1.36-.42-.43-.16-.8-.37-1.12-.63-.32-.26-.57-.58-.75-.96-.18-.38-.27-.84-.27-1.39s.13-1.07.4-1.58c.27-.51.64-.96,1.11-1.35.47-.39,1.03-.71,1.66-.95.63-.24,1.32-.36,2.05-.36s1.36.09,1.88.28c.52.19.94.41,1.26.68.32.27.56.56.71.87.15.31.24.59.27.83-.09.19-.27.36-.52.51-.25.15-.55.25-.88.29-.05-.29-.15-.58-.3-.87s-.36-.55-.63-.78c-.27-.23-.61-.42-1.01-.57-.4-.15-.87-.22-1.42-.22-.91,0-1.63.24-2.18.71-.55.47-.82,1.1-.82,1.87,0,.44.07.8.2,1.09.13.29.32.53.56.72s.52.35.85.47c.33.12.68.23,1.07.32l1.76.44c.73.19,1.34.41,1.83.68.49.27.87.56,1.15.88.28.32.48.67.59,1.05s.17.77.17,1.17c0,.6-.13,1.17-.38,1.72-.25.55-.62,1.03-1.1,1.45-.48.42-1.06.75-1.73,1-.67.25-1.43.37-2.27.37s-1.52-.11-2.12-.32c-.6-.21-1.1-.48-1.5-.81-.4-.33-.7-.69-.91-1.09-.21-.4-.32-.79-.33-1.16Z"/>
      <path class="cls-1" d="M80.64,35.58c.13-.2.35-.39.66-.56.31-.17.61-.27.9-.28.04.37.15.75.32,1.13.17.38.42.72.75,1.02.33.3.73.55,1.21.74.48.19,1.05.29,1.72.29.97,0,1.75-.25,2.32-.75.57-.5.86-1.16.86-1.97s-.2-1.41-.6-1.92c-.4-.51-1.13-.89-2.18-1.16l-1.88-.48c-.48-.12-.93-.26-1.36-.42-.43-.16-.8-.37-1.12-.63-.32-.26-.57-.58-.75-.96-.18-.38-.27-.84-.27-1.39s.13-1.07.4-1.58.64-.96,1.11-1.35c.47-.39,1.03-.71,1.66-.95.63-.24,1.32-.36,2.05-.36s1.36.09,1.88.28c.52.19.94.41,1.26.68.32.27.56.56.71.87.15.31.24.59.27.83-.09.19-.27.36-.52.51-.25.15-.55.25-.88.29-.05-.29-.15-.58-.3-.87-.15-.29-.36-.55-.63-.78-.27-.23-.61-.42-1.01-.57-.4-.15-.87-.22-1.42-.22-.91,0-1.63.24-2.18.71-.55.47-.82,1.1-.82,1.87,0,.44.07.8.2,1.09.13.29.32.53.56.72.24.19.52.35.85.47.33.12.68.23,1.07.32l1.76.44c.73.19,1.34.41,1.83.68.49.27.87.56,1.15.88.28.32.48.67.59,1.05.11.38.17.77.17,1.17,0,.6-.13,1.17-.38,1.72-.25.55-.62,1.03-1.1,1.45-.48.42-1.06.75-1.73,1-.67.25-1.43.37-2.27.37s-1.52-.11-2.12-.32c-.6-.21-1.1-.48-1.5-.81-.4-.33-.7-.69-.91-1.09-.21-.4-.32-.79-.33-1.16Z"/>
      <path class="cls-1" d="M96.06,38.44c-.21.12-.46.2-.75.25-.29.05-.58.07-.89.07v-14.2c.45-.24,1-.36,1.64-.36v14.24Z"/>
      <path class="cls-1" d="M111.48,38.56c-.08.07-.2.12-.36.15-.16.03-.3.05-.42.05l-9.28-12.74c.01,1.04.03,2.07.05,3.08.02,1.01.04,2.03.06,3.04.02,1.01.05,2.04.08,3.07.03,1.03.08,2.1.13,3.19-.15.11-.37.19-.66.26-.29.07-.57.1-.84.1.03-1.16.05-2.29.08-3.39s.05-2.22.08-3.36c.03-1.14.05-2.32.08-3.54.03-1.22.06-2.52.1-3.91.23-.11.48-.19.77-.26.29-.07.57-.1.85-.1l8.38,11.6c-.03-1.97-.06-3.91-.09-5.82-.03-1.91-.08-3.71-.15-5.4.23-.13.48-.23.75-.29.27-.06.52-.09.75-.09-.07,2.13-.13,4.41-.18,6.84-.05,2.43-.11,4.93-.18,7.52Z"/>
      <path class="cls-1" d="M127.42,36.8c-.13.16-.34.36-.63.61-.29.25-.66.49-1.12.72-.46.23-1,.43-1.63.6-.63.17-1.34.25-2.14.25-.88,0-1.73-.15-2.54-.45-.81-.3-1.54-.75-2.17-1.36-.63-.61-1.14-1.37-1.52-2.28-.38-.91-.57-1.98-.57-3.21,0-1.05.19-2.05.57-2.98.38-.93.91-1.75,1.58-2.45.67-.7,1.46-1.25,2.37-1.65.91-.4,1.89-.6,2.96-.6.89,0,1.63.11,2.22.34.59.23,1.06.5,1.41.81.35.31.61.63.77.96s.26.6.3.81c-.09.19-.27.36-.53.53-.26.17-.56.28-.91.33-.08-.33-.21-.67-.4-1s-.44-.63-.77-.89c-.33-.26-.73-.47-1.21-.63-.48-.16-1.05-.24-1.7-.24s-1.23.12-1.82.35c-.59.23-1.11.59-1.57,1.07s-.83,1.09-1.1,1.84-.41,1.63-.41,2.66c0,1.23.16,2.28.49,3.16.33.88.76,1.6,1.3,2.17.54.57,1.16.98,1.85,1.25.69.27,1.41.4,2.14.4.85,0,1.52-.09,2-.27.48-.18.86-.35,1.14-.51v-4.96c-.64.03-1.3.05-1.98.07-.68.02-1.3.03-1.86.03.03-.23.09-.43.19-.62.1-.19.21-.31.33-.38l4.96.04v5.48Z"/>
    </g>
  </g>
</svg>