<?xml version="1.0" encoding="UTF-8"?>
<svg id="Layer_2" data-name="Layer 2" xmlns="http://www.w3.org/2000/svg" viewBox="0 0 126.88 40.82">
  <defs>
    <style>
      .cls-1 {
        fill: #fff;
      }
    </style>
  </defs>
  <g id="Layer_1-2" data-name="Layer 1">
    <g>
      <path class="cls-1" d="M0,25.09v-.36l.72-.25c.81-.26,1.22-.94,1.22-2.04V4.12c0-.48-.05-.86-.16-1.14-.11-.29-.39-.53-.84-.72l-.93-.43v-.36h6.91l6.62,17.32L19.76,1.47h7.05v.36l-.57.21c-.45.17-.76.4-.93.7-.17.3-.25.69-.25,1.16v18.72c0,.48.06.85.18,1.11.12.26.41.49.86.68l.72.32v.36h-8.91v-.36l.75-.32c.45-.19.74-.42.86-.68.12-.26.18-.63.18-1.11v-8.05l.07-10.24-7.48,20.76h-1.79L2.68,4.58l.11,8.91v9.02c0,.53.08.95.23,1.27.15.32.46.55.91.7l.79.25v.36H0Z"/>
      <path class="cls-1" d="M28.38,25.09v-.36l.5-.14c.48-.14.81-.36.98-.64.18-.29.27-.67.27-1.15v-11.2c0-.5-.09-.88-.27-1.13-.18-.25-.51-.42-.98-.52l-.5-.11v-.36l6.55-2.11.36.36-.11,5.08v10.02c0,.48.09.86.27,1.15.18.29.49.5.95.64l.36.11v.36h-8.38ZM32.61,5.48c-.81,0-1.5-.26-2.06-.77-.56-.51-.84-1.16-.84-1.95s.28-1.47.84-1.97,1.25-.75,2.06-.75,1.49.25,2.04.75c.55.5.82,1.16.82,1.97s-.27,1.44-.82,1.95c-.55.51-1.23.77-2.04.77Z"/>
      <path class="cls-1" d="M45.92,25.63c-1.41,0-2.67-.32-3.79-.95-1.12-.63-2.01-1.61-2.67-2.94-.66-1.32-.98-3.02-.98-5.1s.37-3.83,1.11-5.21c.74-1.37,1.72-2.4,2.93-3.08,1.22-.68,2.54-1.02,3.97-1.02.83,0,1.63.08,2.4.25s1.44.42,2.04.75V3.69c0-.5-.08-.87-.23-1.11-.16-.24-.48-.41-.98-.5l-.68-.14v-.36l6.51-1.57.39.32-.14,5.01v17.5c0,.48.08.87.25,1.16.17.3.48.51.93.63l.32.11v.36l-6.12.39-.32-1.29c-.64.43-1.38.78-2.2,1.04-.82.26-1.74.39-2.74.39ZM48,24.3c1,0,1.92-.3,2.76-.9v-14.21c-.88-.57-1.79-.86-2.72-.86-1.15,0-2.12.66-2.94,1.99-.81,1.33-1.22,3.41-1.22,6.25s.38,4.84,1.15,6c.76,1.16,1.75,1.74,2.97,1.74Z"/>
      <path class="cls-1" d="M58.98,25.09v-.36l.43-.14c.86-.29,1.29-.88,1.29-1.79V3.65c0-.48-.1-.84-.29-1.09-.19-.25-.52-.43-1-.55l-.47-.11v-.36l6.55-1.54.43.32-.14,5.01v12.24c0,.88,0,1.76.02,2.63.01.87.02,1.74.02,2.59,0,.48.1.87.29,1.16.19.3.51.52.96.66l.47.11v.36h-8.56Z"/>
      <path class="cls-1" d="M73.98,25.63c-1.38,0-2.55-.39-3.49-1.18-.94-.79-1.41-1.92-1.41-3.4,0-1.12.57-2.15,1.72-3.1,1.15-.94,2.95-1.65,5.4-2.13.38-.07.81-.15,1.29-.23.48-.08.98-.17,1.5-.27v-2.83c0-1.62-.2-2.76-.59-3.42-.39-.66-1.01-.98-1.84-.98-.57,0-1.03.18-1.36.55s-.55,1.01-.64,1.92l-.07.39c-.05,1.03-.3,1.78-.75,2.25-.45.48-1.01.72-1.68.72-.62,0-1.13-.19-1.54-.57-.41-.38-.61-.89-.61-1.54,0-.98.34-1.8,1.02-2.47.68-.67,1.58-1.17,2.7-1.5,1.12-.33,2.34-.5,3.65-.5,2.12,0,3.76.52,4.92,1.56,1.16,1.04,1.74,2.73,1.74,5.07v7.91c0,1.07.5,1.61,1.5,1.61h.79l.32.29c-.45.57-.95,1.01-1.49,1.32-.54.31-1.29.46-2.27.46-1.05,0-1.88-.24-2.49-.73-.61-.49-1.01-1.14-1.2-1.95-.72.76-1.45,1.41-2.2,1.95s-1.72.81-2.92.81ZM76.17,23.44c.48,0,.92-.11,1.34-.34.42-.23.91-.58,1.49-1.06v-6.01c-.24.05-.48.1-.72.14s-.51.1-.82.14c-1.1.29-1.97.77-2.63,1.45-.66.68-.98,1.59-.98,2.74,0,.98.23,1.71.68,2.2.45.49,1,.73,1.65.73Z"/>
      <path class="cls-1" d="M87.22,25.09v-.36l.5-.14c.83-.24,1.25-.82,1.25-1.75v-11.2c0-.52-.08-.91-.25-1.16s-.49-.42-.97-.52l-.54-.14v-.36l6.12-2.08.36.36.29,2.15c.83-.74,1.78-1.35,2.83-1.83,1.05-.48,2.09-.72,3.11-.72,1.58,0,2.79.43,3.63,1.29.85.86,1.27,2.17,1.27,3.94v10.31c0,.93.45,1.52,1.36,1.75l.32.11v.36h-8.45v-.36l.47-.14c.83-.26,1.25-.85,1.25-1.75v-11.42c0-1.53-.76-2.29-2.29-2.29-1.05,0-2.2.52-3.44,1.57v12.17c0,.93.42,1.52,1.25,1.75l.32.11v.36h-8.41Z"/>
      <path class="cls-1" d="M115.5,25.63c-1.41,0-2.67-.32-3.79-.95-1.12-.63-2.01-1.61-2.67-2.94-.66-1.32-.98-3.02-.98-5.1s.37-3.83,1.11-5.21c.74-1.37,1.72-2.4,2.93-3.08,1.22-.68,2.54-1.02,3.97-1.02.83,0,1.63.08,2.4.25s1.44.42,2.04.75V3.69c0-.5-.08-.87-.23-1.11-.16-.24-.48-.41-.98-.5l-.68-.14v-.36l6.51-1.57.39.32-.14,5.01v17.5c0,.48.08.87.25,1.16.17.3.48.51.93.63l.32.11v.36l-6.12.39-.32-1.29c-.64.43-1.38.78-2.2,1.04-.82.26-1.74.39-2.74.39ZM117.58,24.3c1,0,1.92-.3,2.76-.9v-14.21c-.88-.57-1.79-.86-2.72-.86-1.14,0-2.12.66-2.93,1.99-.81,1.33-1.22,3.41-1.22,6.25s.38,4.84,1.15,6c.76,1.16,1.75,1.74,2.97,1.74Z"/>
      <path class="cls-1" d="M16.04,40.79c-.21,0-.38-.05-.5-.14-.13-.09-.2-.22-.23-.38-.03-.16,0-.34.09-.54l3.43-7.61c.11-.25.25-.43.41-.54s.34-.16.55-.16.38.05.54.16c.16.11.3.29.41.54l3.45,7.61c.1.2.13.38.1.55-.03.17-.1.29-.22.38-.12.09-.28.14-.48.14-.24,0-.43-.06-.57-.17-.13-.12-.25-.3-.36-.54l-.85-1.96.7.46h-5.49l.7-.46-.83,1.96c-.11.25-.23.43-.35.55-.12.11-.29.17-.52.17ZM19.77,33.33l-1.82,4.33-.34-.42h4.34l-.32.42-1.83-4.33h-.03Z"/>
      <path class="cls-1" d="M27.43,40.79c-.27,0-.47-.08-.62-.23-.14-.15-.21-.36-.21-.63v-7.57c0-.28.07-.49.22-.63.15-.14.35-.21.62-.21h3.13c1.01,0,1.78.25,2.33.75.55.5.82,1.21.82,2.11s-.27,1.61-.82,2.11c-.55.51-1.32.76-2.33.76h-2.31v2.68c0,.27-.07.48-.21.63-.14.15-.35.23-.62.23ZM28.26,35.94h2.05c.59,0,1.04-.13,1.34-.4.3-.26.46-.65.46-1.16s-.15-.9-.46-1.16c-.3-.26-.75-.39-1.34-.39h-2.05v3.11Z"/>
      <path class="cls-1" d="M35.19,40.79c-.21,0-.38-.05-.5-.14-.13-.09-.2-.22-.23-.38-.03-.16,0-.34.09-.54l3.43-7.61c.11-.25.25-.43.41-.54s.34-.16.55-.16.38.05.54.16c.16.11.3.29.41.54l3.45,7.61c.1.2.13.38.1.55-.03.17-.1.29-.22.38-.12.09-.28.14-.48.14-.24,0-.43-.06-.57-.17-.13-.12-.25-.3-.36-.54l-.85-1.96.7.46h-5.49l.7-.46-.83,1.96c-.11.25-.23.43-.35.55-.12.11-.29.17-.52.17ZM38.92,33.33l-1.82,4.33-.34-.42h4.34l-.32.42-1.83-4.33h-.03Z"/>
      <path class="cls-1" d="M46.58,40.79c-.27,0-.47-.08-.62-.23-.14-.15-.21-.36-.21-.63v-7.57c0-.28.07-.49.22-.63.15-.14.35-.21.62-.21h3.13c1.01,0,1.78.24,2.33.72.55.48.82,1.16.82,2.02,0,.56-.12,1.05-.37,1.46s-.6.72-1.07.94c-.47.22-1.04.33-1.7.33l.12-.2h.43c.36,0,.67.09.93.26.26.17.5.45.7.82l.98,1.81c.1.18.15.36.14.53,0,.17-.07.31-.19.42-.12.11-.3.16-.53.16s-.42-.05-.57-.15-.28-.25-.39-.46l-1.31-2.42c-.16-.29-.34-.49-.55-.59s-.48-.15-.81-.15h-1.23v2.91c0,.27-.07.48-.21.63-.14.15-.35.23-.62.23ZM47.41,35.79h2.03c.6,0,1.05-.12,1.36-.37s.46-.62.46-1.11-.15-.85-.46-1.1-.76-.37-1.36-.37h-2.03v2.95Z"/>
      <path class="cls-1" d="M58.42,40.79c-.27,0-.47-.08-.62-.23-.14-.15-.21-.36-.21-.63v-7.02h-2.54c-.23,0-.4-.06-.53-.19-.13-.12-.19-.3-.19-.51s.06-.4.19-.51.3-.18.53-.18h6.73c.23,0,.4.06.53.18.13.12.19.29.19.51s-.06.39-.19.51c-.13.13-.3.19-.53.19h-2.54v7.02c0,.27-.07.48-.21.63-.14.15-.35.23-.62.23Z"/>
      <path class="cls-1" d="M65.21,40.79c-.24,0-.43-.07-.56-.21-.13-.14-.19-.33-.19-.57v-7.81c0-.25.07-.44.21-.58s.33-.2.57-.2c.22,0,.39.04.51.12.12.08.24.22.34.42l3.21,5.94h-.42l3.21-5.94c.11-.2.22-.34.34-.42s.29-.12.51-.12c.24,0,.43.07.56.2.13.13.2.33.2.58v7.81c0,.24-.06.43-.19.57-.12.14-.31.21-.56.21s-.43-.07-.56-.21c-.13-.14-.2-.33-.2-.57v-6.02h.29l-2.73,4.98c-.09.15-.18.26-.27.33-.1.07-.23.1-.39.1s-.3-.04-.4-.11-.2-.18-.27-.32l-2.76-4.99h.31v6.03c0,.24-.06.43-.19.57-.12.14-.31.21-.56.21Z"/>
      <path class="cls-1" d="M77.57,40.69c-.29,0-.5-.08-.66-.23s-.23-.37-.23-.66v-7.4c0-.29.08-.5.23-.66s.37-.23.66-.23h4.64c.22,0,.38.06.5.17.12.11.18.27.18.48s-.06.38-.18.5-.28.18-.5.18h-3.93v2.52h3.64c.22,0,.39.06.51.17.11.11.17.28.17.49s-.06.38-.17.49-.28.17-.51.17h-3.64v2.67h3.93c.22,0,.38.06.5.17.12.11.18.28.18.49s-.06.38-.18.49-.28.17-.5.17h-4.64Z"/>
      <path class="cls-1" d="M86.2,40.79c-.25,0-.44-.07-.58-.21-.13-.14-.2-.34-.2-.6v-7.73c0-.27.07-.47.2-.62.13-.14.31-.21.53-.21.2,0,.35.04.45.11.1.07.22.2.36.37l4.98,6.46h-.34v-6.15c0-.25.07-.45.2-.58.13-.14.33-.21.58-.21s.44.07.57.21.19.33.19.58v7.8c0,.24-.06.43-.18.57-.12.14-.29.21-.49.21s-.36-.04-.47-.12c-.12-.08-.25-.2-.38-.38l-4.97-6.46h.33v6.15c0,.26-.06.46-.2.6-.13.14-.32.21-.57.21Z"/>
      <path class="cls-1" d="M99.17,40.79c-.27,0-.47-.08-.62-.23-.14-.15-.21-.36-.21-.63v-7.02h-2.54c-.23,0-.4-.06-.53-.19-.13-.12-.19-.3-.19-.51s.06-.4.19-.51.3-.18.53-.18h6.73c.23,0,.4.06.53.18s.19.29.19.51-.06.39-.19.51c-.13.13-.3.19-.53.19h-2.54v7.02c0,.27-.07.48-.21.63-.14.15-.35.23-.62.23Z"/>
      <path class="cls-1" d="M108.03,40.82c-.38,0-.76-.03-1.14-.08-.38-.06-.74-.14-1.08-.26-.34-.12-.64-.26-.91-.44-.16-.1-.26-.23-.33-.38-.06-.15-.08-.29-.06-.44.02-.14.08-.27.17-.38s.21-.17.34-.2.29.01.46.12c.38.23.78.39,1.21.49.42.1.87.16,1.34.16.68,0,1.18-.11,1.5-.34.31-.23.47-.53.47-.89,0-.3-.11-.54-.33-.71-.22-.17-.6-.32-1.14-.43l-1.43-.3c-.82-.17-1.44-.47-1.84-.88-.4-.41-.6-.96-.6-1.63,0-.42.09-.81.26-1.16.17-.35.42-.65.73-.9.32-.25.69-.44,1.13-.58.44-.13.92-.2,1.45-.2s1.01.06,1.48.2c.47.13.89.32,1.26.57.14.1.23.21.28.35.05.14.06.28.03.41-.03.13-.09.25-.18.34-.09.1-.21.15-.36.17-.14.02-.3-.03-.49-.13-.32-.18-.65-.31-.97-.39-.33-.08-.68-.12-1.07-.12s-.74.06-1.03.17c-.29.11-.51.27-.66.47-.15.2-.23.44-.23.72,0,.31.1.56.31.75s.56.33,1.07.44l1.42.3c.86.18,1.5.47,1.92.86.42.39.63.91.63,1.56,0,.42-.08.79-.25,1.13s-.41.63-.73.87c-.32.24-.7.43-1.14.56-.44.13-.94.2-1.5.2Z"/>
    </g>
  </g>
</svg>