<?xml version="1.0" encoding="UTF-8"?>
<svg id="Layer_2" data-name="Layer 2" xmlns="http://www.w3.org/2000/svg" viewBox="0 0 83.4 27.47">
  <defs>
    <style>
      .cls-1 {
        fill: #0c7f40;
      }

      .cls-2 {
        fill: #86704d;
      }
    </style>
  </defs>
  <g id="Layer_1-2" data-name="Layer 1">
    <g id="Layer_2-2" data-name="Layer 2">
      <g id="Layer_1-2" data-name="Layer 1-2">
        <path class="cls-1" d="M9.23,21.37c-.03-1.57,1.22-2.87,2.79-2.9,1.57-.03,2.87,1.22,2.9,2.79.03,1.57-1.22,2.87-2.79,2.9-.02,0-.03,0-.05,0-1.53.03-2.8-1.18-2.84-2.72,0-.03,0-.06,0-.09v.02ZM9.84,21.37c0,1.25,1.01,2.26,2.26,2.26s2.26-1.01,2.26-2.26-1.01-2.26-2.26-2.26-2.26,1.01-2.26,2.26Z"/>
        <path class="cls-1" d="M19.08,24.08h-.51v-.67c-.29.53-.87.83-1.46.75-.89.04-1.64-.64-1.68-1.53,0-.1,0-.2.01-.3v-2.26h.54v2.14c0,.85.38,1.43,1.28,1.42.66.05,1.24-.44,1.29-1.1,0-.07,0-.15,0-.22v-2.26h.54v4.03Z"/>
        <path class="cls-1" d="M19.85,20.11h.53v.65c.23-.48.73-.78,1.27-.75v.54h-.05c-.75,0-1.19.48-1.19,1.37v2.16h-.55v-3.96Z"/>
        <path class="cls-1" d="M25.15,18.63c.51-.06,1.03.06,1.46.35.37.33.57.8.56,1.3,0,.49-.2.96-.56,1.3-.42.29-.93.42-1.44.36h-.85v2.14h-.61v-5.45h1.44ZM24.32,21.4h.87c.35.03.71-.05,1.01-.23.27-.21.42-.54.41-.88.02-.35-.14-.68-.42-.89-.31-.18-.66-.26-1.02-.23h-.85v2.23Z"/>
        <path class="cls-1" d="M27.63,22.25c.02.82.69,1.46,1.51,1.46.57.02,1.11-.3,1.36-.82h.57c-.32.76-1.06,1.26-1.89,1.26-1.17.03-2.14-.9-2.17-2.07-.03-1.17.9-2.14,2.07-2.17s2.14.9,2.17,2.07c0,.08,0,.16,0,.23l-3.61.03ZM30.71,21.82c0-.85-.69-1.53-1.53-1.53s-1.53.69-1.53,1.53h3.06Z"/>
        <path class="cls-1" d="M31.7,20.11h.51v.65c.24-.48.73-.78,1.27-.75v.54h-.05c-.75,0-1.19.48-1.19,1.37v2.16h-.54v-3.96Z"/>
        <path class="cls-1" d="M33.89,20.55h-.58v-.44h.58v-.32c0-1.22.96-1.26,1.39-1.26v.43c-.27,0-.85,0-.85.88v.27h.85v.44h-.85v3.53h-.54v-3.53Z"/>
        <path class="cls-1" d="M35.6,22.25c.02.82.69,1.46,1.51,1.46.58.03,1.13-.29,1.38-.82h.57c-.32.77-1.08,1.26-1.91,1.26-1.13.03-2.07-.87-2.09-2,0-.03,0-.06,0-.08-.05-1.15.84-2.12,1.99-2.17,1.15-.05,2.12.84,2.17,1.99,0,.11,0,.22-.01.32l-3.61.03ZM38.67,21.82c0-.83-.68-1.51-1.51-1.51s-1.51.68-1.51,1.51h3.02Z"/>
        <path class="cls-1" d="M43.55,22.74c-.35,1.11-1.53,1.73-2.64,1.38-1.11-.35-1.73-1.53-1.38-2.64s1.53-1.73,2.64-1.38c.66.21,1.18.72,1.38,1.38h-.52c-.33-.8-1.24-1.19-2.04-.87-.19.08-.37.19-.51.34-.3.3-.46.71-.46,1.14-.04.83.61,1.54,1.44,1.58.02,0,.05,0,.07,0,.63.02,1.2-.36,1.43-.94h.6Z"/>
        <path class="cls-1" d="M44.34,20.55h-.75v-.44h.75v-1.51h.54v1.51h.87v.44h-.87v3.53h-.54v-3.53Z"/>
        <path class="cls-1" d="M47.69,24.08h-.66l2.26-5.45h.59l2.26,5.45h-.66l-.63-1.51h-2.55l-.62,1.51ZM49.58,19.31l-1.08,2.73h2.17l-1.09-2.73Z"/>
        <path class="cls-1" d="M52.44,20.11h.52v.83c.33-.6.97-.96,1.65-.94,1.15,0,2.09.94,2.09,2.09s-.94,2.09-2.09,2.09h0c-.67.03-1.3-.33-1.62-.92v2.31h-.55v-5.47ZM56.1,22.09c.04-.83-.6-1.54-1.43-1.59-.05,0-.11,0-.16,0-.42,0-.82.17-1.12.47-.29.31-.44.71-.44,1.13-.03.83.61,1.54,1.45,1.57.04,0,.08,0,.12,0,.83.04,1.54-.61,1.58-1.44,0-.05,0-.09,0-.14h0Z"/>
        <path class="cls-1" d="M61.14,24.08h-.53v-.82c-.33.58-.96.93-1.62.9-1.15,0-2.09-.94-2.09-2.09s.94-2.09,2.09-2.09c.68-.03,1.31.34,1.62.94v-.81h.53v3.96ZM57.46,22.11c-.01.85.67,1.56,1.52,1.57.02,0,.05,0,.07,0,.63,0,1.2-.37,1.43-.96.09-.2.14-.41.14-.63,0-.22-.04-.44-.13-.63-.23-.59-.81-.97-1.45-.95-.86-.01-1.57.67-1.58,1.53,0,.02,0,.04,0,.06h0Z"/>
        <path class="cls-1" d="M61.9,20.11h.51v.65c.24-.48.73-.78,1.27-.75v.54h-.05c-.75,0-1.19.48-1.19,1.37v2.16h-.54v-3.96Z"/>
        <path class="cls-1" d="M64.5,20.55h-.75v-.44h.75v-1.51h.54v1.51h.87v.44h-.87v3.53h-.54v-3.53Z"/>
        <path class="cls-1" d="M66.21,20.11h.52v.63c.24-.46.72-.75,1.25-.75.41-.02.81.14,1.09.45.1.13.19.27.26.42.07-.15.17-.3.29-.42.29-.29.68-.44,1.09-.44.4-.02.78.12,1.07.39.36.42.52.97.45,1.52v2.2h-.54v-2.2c.03-.37-.07-.75-.29-1.05-.19-.22-.47-.34-.75-.33-.34-.01-.66.14-.87.42-.22.27-.33.62-.3.97v2.2h-.54v-2.2c.04-.33-.04-.65-.2-.94-.2-.28-.53-.43-.87-.42-.33-.02-.65.14-.84.41-.18.28-.26.62-.23.95v2.21h-.55v-3.99Z"/>
        <path class="cls-1" d="M73.22,22.25c.02.82.69,1.46,1.51,1.46.57,0,1.1-.31,1.37-.82h.57c-.17.39-.44.73-.8.97-.34.2-.73.31-1.13.29-1.17.03-2.14-.9-2.17-2.07s.9-2.14,2.07-2.17c1.17-.03,2.14.9,2.17,2.07,0,.08,0,.16,0,.23l-3.57.03ZM76.24,21.82c0-.83-.68-1.51-1.51-1.51s-1.51.68-1.51,1.51h3.02Z"/>
        <path class="cls-1" d="M77.28,20.11h.51v.71c.28-.56.89-.88,1.51-.82.88-.05,1.63.63,1.67,1.51,0,.1,0,.21-.01.31v2.26h-.54v-2.16c0-.85-.38-1.43-1.28-1.42-.66-.05-1.24.45-1.29,1.11,0,.07,0,.15,0,.22v2.26h-.54l-.05-3.99Z"/>
        <path class="cls-1" d="M81.99,20.55h-.75v-.44h.75v-1.51h.54v1.51h.87v.44h-.87v3.53h-.54v-3.53Z"/>
        <path class="cls-1" d="M82.9,15.74c-7.4-2.1-18.63-3.55-31.37-3.75h-6.48c-22.58.38-40.37,4.61-40.37,9.78,0,2.13,3.01,4.1,8.15,5.7-7.95-1.8-12.83-4.21-12.83-6.9,0-3.59,8.71-6.74,21.72-8.45,6.62-.87,14.34-1.37,22.6-1.37,7.73,0,14.99.43,21.31,1.19,7.22.88,13.22,2.19,17.27,3.8Z"/>
      </g>
    </g>
    <path class="cls-2" d="M65.56,10.06h-.52v-.15h-.08v-.21h-.16v-.98h-.64v-.22h-.9v.21h-.48v-3.77l-.31-.08h-.07l-2.91.06v4.14h-.17v-.22h-.44v.22h-.21v-3.71l-.08-.06-.05-.76v-.5c0-.06-.02-.11-.06-.15h-.09l-3.02.05s-.05,0-.06.07v.55l-.06.65v.09h-.15v1.11h-.14v3.08h-.34v-.42h-.19V2.49l-.76-.22h-1.8v1.51h-.16v-.26h-.06v-.08c-.02-.36-.24-.68-.57-.82v-.13c-.12-.01-.23-.01-.35,0-.12-.01-.23-.01-.35,0v.13c-.3.14-.51.43-.55.76l-.07.1v.22l-.19.08v.38l-.1.07v.54l-.17.08v3.52h-.55v-1.1h-.06v-.59l-.68-.08h-.09v-.18h-.8v.19h-.97v.63h-.98v-.25h-1.6v-.57h-.14v-.05h-.09v-.08l-.69-.25h-.25l-.07-.07v-.18l1.25-.56-1.25.51v-.16h-.06v-.14l-.08-.07-.07.07v.14h-.07v.28l-.34.14h-.02l-.47.2-1.86.77v-.44h-.16v-.09h-.11v-.07l-.56-.22,3.78-3.23-4,3.22h-.06l-.25-.1v-.34h-.06v-.15l-.08-.07-.07.07v.15h-.05v.44h-.38l-.36.13,3.39-5.04-3.59,5.1h-.03l-.72-.05,1.99-5.97-2.11,5.96h-.08l-.44.61v.47h-.12v.62h-.09l-.21-7.97.02,8.33L31.92.41l2.9,7.85-5.19-6.86,5,6.95-6.87-5.19,6.54,5.24-7.72-2.95,7.46,3.16-7.99-.82,7.83,1.1v.06h-.67v-.1h-.06v-.04h-1.62v.34h-.06v-.27h-.33l-.04.05v.2h-.23l-.04.06v.12h-.09l-5.83-.02h-.39c-.11-.01-.21-.01-.32,0l-.25.07h-.04v-.28h-.36v.22h-.26v-.24h-.45v.33h-.28v.12h.08v.79h-.71s-.09.08-.1.14c-.01.04-.01.08,0,.12h-.11v1.56c6.62-.87,14.34-1.37,22.6-1.37,7.73,0,14.99.43,21.31,1.19v-1.87h-.07ZM40.76,8.31h-.29v-.1l-.04-.04.33-.06v.2ZM40.76,7.98l-.48.06-.09-.07v-.06l-.18.16h-.02s-.46.07-.46.07h-.17v-1l1.4-.64v1.48ZM42.05,6h-.17l.17-.08v.08Z"/>
  </g>
</svg>