<?xml version="1.0" encoding="UTF-8"?>
<svg id="Layer_2" data-name="Layer 2" xmlns="http://www.w3.org/2000/svg" viewBox="0 0 230.91 76.06">
  <defs>
    <style>
      .cls-1 {
        fill: #fff;
      }
    </style>
  </defs>
  <g id="Layer_1-2" data-name="Layer 1">
    <g>
      <path class="cls-1" d="M33.29,51.12c-4.35.08-7.81,3.67-7.73,8.02l.02-.04c0,.08,0,.17,0,.25.09,4.25,3.61,7.61,7.86,7.52.05,0,.1,0,.14,0,4.35-.08,7.81-3.67,7.73-8.02-.08-4.35-3.67-7.81-8.02-7.73ZM33.52,65.42c-3.46,0-6.27-2.81-6.27-6.27s2.81-6.27,6.27-6.27,6.27,2.81,6.27,6.27-2.81,6.27-6.27,6.27Z"/>
      <path class="cls-1" d="M51.33,61.76c.02.2.02.41,0,.61-.15,1.83-1.75,3.19-3.58,3.04-2.47.02-3.53-1.57-3.53-3.93v-5.94h-1.48v6.27c-.04.27-.05.55-.04.82.12,2.46,2.2,4.35,4.66,4.24,1.65.2,3.26-.63,4.05-2.09v1.86h1.42v-11.16h-1.5v6.27Z"/>
      <path class="cls-1" d="M56.43,57.48v-1.8h-1.46v10.97h1.53v-5.98c0-2.49,1.21-3.8,3.3-3.8h.15v-1.48c-1.48-.07-2.86.76-3.51,2.09Z"/>
      <path class="cls-1" d="M73.69,52.52c-1.19-.79-2.63-1.13-4.05-.96h-3.99v15.09h1.69v-5.94h2.36c1.41.16,2.83-.19,3.99-1,1-.93,1.56-2.23,1.55-3.59.03-1.37-.53-2.68-1.55-3.59ZM72.55,58.6c-.85.49-1.82.71-2.8.63h-2.4v-6.17h2.36c.98-.09,1.97.13,2.82.63.77.58,1.2,1.51,1.15,2.47.03.95-.39,1.86-1.13,2.45Z"/>
      <path class="cls-1" d="M80.51,55.14c-3.24.08-5.81,2.77-5.73,6.02.08,3.24,2.77,5.81,6.02,5.73,2.28-.01,4.34-1.39,5.23-3.49h-1.57c-.7,1.43-2.17,2.31-3.76,2.26-2.26,0-4.11-1.8-4.18-4.05l9.99-.08c.02-.21.02-.43.02-.65-.08-3.24-2.77-5.81-6.02-5.73ZM76.54,60.4c0-2.34,1.9-4.24,4.24-4.24s4.24,1.9,4.24,4.24h-8.49Z"/>
      <path class="cls-1" d="M97.69,55.68h-2.36v-.75c0-2.42,1.61-2.42,2.36-2.42v-1.19c-1.19,0-3.85.1-3.85,3.49v.88h-1.13v-.29c-1.48-.06-2.86.76-3.51,2.09v-1.8h-1.42v10.97h1.48v-5.98c0-2.35,1.08-3.65,2.97-3.79h0s1.61,0,1.61,0v9.76h1.48v-9.76h2.36v-1.21Z"/>
      <path class="cls-1" d="M102.6,55.1c-3.18.14-5.65,2.83-5.51,6.01,0,.08,0,.15,0,.23.07,3.13,2.66,5.61,5.79,5.54,2.31.01,4.39-1.37,5.29-3.49h-1.57c-.71,1.45-2.21,2.34-3.82,2.26-2.26,0-4.11-1.8-4.18-4.05l9.99-.08c.03-.3.04-.6.03-.9-.14-3.18-2.83-5.65-6.01-5.51ZM98.71,60.4c0-2.31,1.87-4.18,4.18-4.18s4.18,1.87,4.18,4.18h-8.36Z"/>
      <path class="cls-1" d="M113.47,57.08c2.23-.9,4.76.17,5.66,2.4h1.44c-.57-1.83-2-3.26-3.83-3.83-3.07-.96-6.34.76-7.3,3.83-.96,3.07.76,6.34,3.83,7.3,3.07.96,6.34-.76,7.3-3.83h-1.65c-.66,1.6-2.24,2.63-3.97,2.59-.06,0-.13,0-.19,0-2.31-.1-4.09-2.06-3.99-4.36,0-1.18.45-2.31,1.27-3.16.41-.4.89-.72,1.43-.94Z"/>
      <polygon class="cls-1" points="124.25 51.5 122.77 51.5 122.77 55.68 120.68 55.68 120.68 56.89 122.77 56.89 122.77 66.65 124.25 66.65 124.25 56.89 126.66 56.89 126.66 55.68 124.25 55.68 124.25 51.5"/>
      <path class="cls-1" d="M136.5,51.56l-6.27,15.09h1.82l1.71-4.18h7.06l1.76,4.18h1.82l-6.27-15.09h-1.63ZM134.28,61.03l2.99-7.57,3.03,7.57h-6.02Z"/>
      <path class="cls-1" d="M151.21,55.39c-1.89-.06-3.66.94-4.58,2.59v-2.3h-1.44v15.13h1.53v-6.4c.89,1.64,2.63,2.63,4.49,2.55,3.2,0,5.79-2.59,5.79-5.79s-2.59-5.79-5.79-5.79ZM155.33,61.15v.02c0,.13,0,.26,0,.39-.11,2.31-2.06,4.09-4.37,3.98-.11,0-.23,0-.34,0-2.31-.09-4.1-2.04-4.01-4.35-.02-1.16.42-2.29,1.21-3.14.82-.83,1.93-1.29,3.09-1.3.15,0,.3,0,.45,0,2.31.12,4.08,2.08,3.96,4.39Z"/>
      <path class="cls-1" d="M167.83,57.91c-.86-1.67-2.61-2.69-4.49-2.61-3.2,0-5.79,2.59-5.79,5.79s2.59,5.79,5.79,5.79c1.85.09,3.59-.87,4.49-2.49v2.26h1.46v-10.97h-1.46v2.24ZM167.45,62.89c-.64,1.62-2.21,2.68-3.95,2.65-.06,0-.13,0-.19,0-2.37-.04-4.26-1.98-4.22-4.35v-.02c0-.06,0-.11,0-.17.04-2.38,1.99-4.28,4.37-4.24,1.76-.05,3.36,1,4.01,2.63.26.55.38,1.15.36,1.76,0,.6-.13,1.19-.38,1.73Z"/>
      <path class="cls-1" d="M172.8,57.48v-1.8h-1.42v10.97h1.48v-5.98c0-2.49,1.21-3.8,3.3-3.8h.15v-1.48c-1.48-.06-2.86.76-3.51,2.09Z"/>
      <polygon class="cls-1" points="180.08 51.5 178.59 51.5 178.59 55.68 176.5 55.68 176.5 56.89 178.59 56.89 178.59 66.65 180.08 66.65 180.08 56.89 182.48 56.89 182.48 55.68 180.08 55.68 180.08 51.5"/>
      <path class="cls-1" d="M195.73,55.32c-1.13-.02-2.21.42-3.01,1.21-.32.35-.59.74-.79,1.17-.2-.41-.44-.79-.71-1.15-.77-.83-1.87-1.28-3.01-1.23-1.45,0-2.77.81-3.45,2.09v-1.73h-1.44v11.06h1.53v-6.12c-.08-.93.15-1.85.65-2.63.53-.75,1.41-1.17,2.32-1.13.95-.03,1.84.41,2.4,1.17.46.78.66,1.69.56,2.59v6.1h1.5v-6.1c-.08-.97.22-1.92.84-2.68.56-.76,1.46-1.19,2.4-1.15.8-.03,1.57.31,2.09.92.61.84.9,1.87.82,2.91v6.1h1.5v-6.1c.22-1.51-.23-3.04-1.23-4.2-.8-.75-1.87-1.14-2.97-1.09Z"/>
      <path class="cls-1" d="M206.62,55.14c-3.24.08-5.81,2.77-5.73,6.02.08,3.24,2.77,5.81,6.02,5.73,1.1.03,2.19-.25,3.14-.82.98-.66,1.75-1.59,2.22-2.68h-1.57c-.73,1.41-2.2,2.28-3.78,2.26-2.26,0-4.11-1.8-4.18-4.05l9.89-.08c.02-.21.02-.43.02-.65-.08-3.24-2.77-5.81-6.02-5.73ZM202.73,60.4c0-2.31,1.87-4.18,4.18-4.18s4.18,1.87,4.18,4.18h-8.36Z"/>
      <path class="cls-1" d="M219.58,55.39c-1.73-.19-3.39.71-4.18,2.26v-1.96h-1.42l.13,11.06h1.5v-6.27c-.02-.2-.03-.41-.01-.61.14-1.83,1.73-3.2,3.56-3.06,2.47-.04,3.53,1.57,3.53,3.93v5.98h1.48v-6.27c.04-.29.05-.58.04-.87-.13-2.43-2.21-4.3-4.64-4.17Z"/>
      <polygon class="cls-1" points="228.5 55.68 228.5 51.5 227.02 51.5 227.02 55.68 224.93 55.68 224.93 56.89 227.02 56.89 227.02 66.65 228.5 66.65 228.5 56.89 230.91 56.89 230.91 55.68 228.5 55.68"/>
      <path class="cls-1" d="M12.98,60.28c0-14.28,49.11-25.99,111.5-27.09h19.01c34.95.62,65.72,4.61,86.06,10.37-11.24-4.46-27.84-8.09-47.84-10.51v-5.19l-.19-.02h-1.44v-.42h-.21v-.59h-.44v-2.7h-1.78v-.61h-2.49v.56h-1.34v-10.43l-.86-.23h-.19l-8.07.17v11.47h-.46v-.61h-1.23v.61h-.59v-10.28l-.21-.17-.15-2.09v-1.4c0-.16-.06-.31-.17-.42h-.25l-8.36.15s-.13,0-.17.21v1.5l-.17,1.82v.23h-.4v3.09h-.4v8.51h-.94v-1.15h-.52V6.9l-2.11-.63h-4.97v4.18h-.44v-.71h-.19v-.23c-.05-.99-.66-1.88-1.57-2.28v-.33c-.32-.04-.64-.04-.96,0-.33-.04-.66-.04-.98,0v.36c-.84.38-1.41,1.18-1.5,2.09l-.21.29v.61l-.52.21v1.05l-.27.21v1.5l-.48.21v9.74h-1.53v-3.05h-.15v-1.63l-1.9-.21h-.25v-.5h-2.19v.52h-2.7v1.73h-2.72v-.69h-4.43v-1.57h-.38v-.13h-.25v-.23l-1.9-.69h-.71l-.19-.19v-1.09h-.17v-.4l-.21-.19-.21.19v.4h-.19v1.15h-1l-1.61.69h.17l-.44.21v.21h-.69v5.29h-.79v-.27l-.77-.65v-.17l-.52.42-.23.21h-1.57v-4.47h-.44v-.23h-.29v-.21l-1.59-.63h-.73l-.71-.27v-.96h-.17v-.4l-.21-.19-.21.19v.4h-.13v1.23h-1.07l-1.4.52h-.21l-2.32-.17h-.25l-1.21,1.69v1.3h-.31v1.71h-.52v1.96h-.5v.56h-2.91v.19h-1.84v-.27h-.17v-.13h-4.49v.94h-.17v-.73h-.9l-.13.13v.56h-.63l-.13.17v.33h-.25l-16.14-.06h-1.07c-.3-.02-.6-.02-.9,0l-.69.21h-.1v-.77h-1v.59h-.71v-.65h-1.25v.9h-.77v.33h.23v2.19h-1.96c-.16.08-.27.22-.29.4-.02.1-.02.21,0,.31h-.29v4.33C24.14,38.29,0,46.99,0,56.95c0,7.44,13.52,14.11,35.53,19.1-14.23-4.45-22.55-9.89-22.55-15.78Z"/>
      <polygon class="cls-1" points="117.51 15.76 117.51 15.89 120.66 14.46 117.51 15.76"/>
      <polygon class="cls-1" points="106.46 16.69 106.71 16.69 106.96 16.79 117.15 8.09 106.46 16.69"/>
      <polygon class="cls-1" points="112.56 22.5 112.56 22.13 111.93 22.21 112.33 22.54 112.56 22.5"/>
      <polygon class="cls-1" points="112.56 17.8 109.28 19.15 109.28 19.63 112.56 18.14 112.56 17.8"/>
      <polygon class="cls-1" points="97.43 21.75 97.43 21.01 96.89 0 96.95 21.75 97.43 21.75"/>
      <polygon class="cls-1" points="102.73 16.93 111.84 3.41 102.14 17.15 102.73 16.93"/>
      <polygon class="cls-1" points="90.05 24.07 92.1 24.07 92.1 24.19 92.26 24.19 92.26 24.38 92.88 24.47 93.5 24.47 93.5 24.28 96.4 24.28 96.4 23.71 96.91 23.71 96.91 22.95 88.39 1.13 96.42 22.85 82.03 3.87 95.89 23.11 76.87 8.74 94.98 23.26 73.59 15.09 94.27 23.82 72.13 21.55 90.05 24.07"/>
      <polygon class="cls-1" points="105.32 .84 99.6 17.05 99.91 17.08 105.32 .84"/>
    </g>
  </g>
</svg>