<svg xmlns="http://www.w3.org/2000/svg" viewBox="0 0 110.48 36.39"><defs><style>.cls-1{fill:#86704d;fill-rule:evenodd;}.cls-2{fill:#fff;}.cls-3{fill:#231f20;}.cls-4{fill:#a7aaad;}.cls-5{fill:#0c7f40;}</style></defs><title>opa</title><g id="Layer_2" data-name="Layer 2"><g id="Layer_1-2" data-name="Layer 1"><polyline class="cls-1" points="46.53 12 46.52 11.54 58.53 9.98"/><polyline class="cls-1" points="46.53 12 46.52 11.54 57.73 6.92"/><polyline class="cls-1" points="46.53 12 46.52 11.54 56.05 3.87"/><polyline class="cls-1" points="46.53 12 46.52 11.54 53.51 1.63"/><polyline class="cls-1" points="46.53 12 46.45 11.57 50.39 0.4"/><polyline class="cls-1" points="46.53 12 34.51 10.31 46.49 11.54"/><polyline class="cls-1" points="46.53 12 35.21 7.22 46.52 11.54"/><polyline class="cls-1" points="46.53 12 36.78 4.18 46.52 11.54"/><polyline class="cls-1" points="46.56 12 39.25 1.85 46.55 11.48"/><polyline class="cls-1" points="46.53 12 42.29 0.54 46.55 11.45"/><polyline class="cls-1" points="46.66 11.79 46.39 11.8 46.36 0"/><path class="cls-2" d="M12.23,28.3A3.77,3.77,0,1,1,16,32a3.68,3.68,0,0,1-3.76-3.72Zm.81,0a3,3,0,1,0,3-3,3,3,0,0,0-3,3Z"/><path class="cls-2" d="M25.28,31.89H24.6V31A1.94,1.94,0,0,1,22.66,32a2.13,2.13,0,0,1-2.21-2.42v-3h.71v2.84c0,1.13.51,1.89,1.69,1.88a1.59,1.59,0,0,0,1.71-1.75v-3h.72Z"/><path class="cls-2" d="M26.3,26.64H27v.86a1.78,1.78,0,0,1,1.68-1v.71h-.07c-1,0-1.58.63-1.58,1.82v2.86H26.3Z"/><path class="cls-2" d="M33.32,24.67a2.88,2.88,0,0,1,1.94.46A2.25,2.25,0,0,1,36,26.85a2.32,2.32,0,0,1-.74,1.72,2.79,2.79,0,0,1-1.91.48H32.22v2.84h-.81V24.67Zm-1.1,3.67h1.15a2.28,2.28,0,0,0,1.34-.3,1.43,1.43,0,0,0,.54-1.17,1.4,1.4,0,0,0-.55-1.18,2.3,2.3,0,0,0-1.35-.3H32.22Z"/><path class="cls-2" d="M36.61,29.47a2,2,0,0,0,2,1.94,1.93,1.93,0,0,0,1.8-1.08h.75A2.73,2.73,0,0,1,38.66,32a2.81,2.81,0,1,1,2.73-2.57Zm4.07-.57a2,2,0,0,0-4.06,0Z"/><path class="cls-2" d="M42,26.64h.68v.86a1.79,1.79,0,0,1,1.68-1v.71h-.07c-1,0-1.58.63-1.58,1.82v2.86H42Z"/><path class="cls-2" d="M44.9,27.22h-.77v-.58h.77v-.42c0-1.62,1.27-1.67,1.84-1.67v.57c-.36,0-1.13,0-1.13,1.16v.36h1.13v.58H45.61v4.67H44.9Z"/><path class="cls-2" d="M47.17,29.47a2,2,0,0,0,2,1.94A1.93,1.93,0,0,0,51,30.33h.75A2.73,2.73,0,0,1,49.22,32a2.71,2.71,0,0,1-2.77-2.76,2.76,2.76,0,1,1,5.5.19Zm4.06-.57a2,2,0,0,0-4,0Z"/><path class="cls-2" d="M57.69,30.12a2.79,2.79,0,1,1,0-1.66H57a2.08,2.08,0,0,0-3.39-.7A2.14,2.14,0,0,0,53,29.27,2,2,0,0,0,55,31.36a2,2,0,0,0,1.9-1.24Z"/><path class="cls-2" d="M58.74,27.22h-1v-.58h1v-2h.71v2H60.6v.58H59.45v4.67h-.71Z"/><path class="cls-2" d="M63.18,31.89h-.87l3-7.22h.78l3,7.22h-.87l-.84-2H64Zm2.5-6.31L64.25,29.2h2.88Z"/><path class="cls-2" d="M69.47,26.64h.69v1.1a2.41,2.41,0,0,1,2.19-1.24,2.77,2.77,0,0,1,0,5.54,2.33,2.33,0,0,1-2.15-1.22v3.06h-.73Zm4.85,2.62a2,2,0,0,0-2.11-2.1,2.09,2.09,0,0,0-1.48.62,2.15,2.15,0,0,0-.58,1.5,2,2,0,0,0,2.08,2.08,2,2,0,0,0,2.09-2.09Z"/><path class="cls-2" d="M81,31.89H80.3V30.81A2.33,2.33,0,0,1,78.15,32a2.77,2.77,0,0,1,0-5.54,2.31,2.31,0,0,1,2.15,1.25V26.64H81Zm-4.88-2.61a2.05,2.05,0,0,0,2.11,2.08,2,2,0,0,0,1.89-1.27,2,2,0,0,0,.18-.83,1.81,1.81,0,0,0-.17-.84,2,2,0,0,0-1.92-1.26,2.06,2.06,0,0,0-2.09,2.11Z"/><path class="cls-2" d="M82,26.64h.68v.86a1.79,1.79,0,0,1,1.68-1v.71h-.07c-1,0-1.58.63-1.58,1.82v2.86H82Z"/><path class="cls-2" d="M85.45,27.22h-1v-.58h1v-2h.71v2h1.15v.58H86.16v4.67h-.71Z"/><path class="cls-2" d="M87.71,26.64h.69v.83a1.87,1.87,0,0,1,1.65-1,1.85,1.85,0,0,1,1.44.59,3.19,3.19,0,0,1,.34.55,2.3,2.3,0,0,1,.38-.56,2,2,0,0,1,1.44-.58,1.94,1.94,0,0,1,1.42.52A2.53,2.53,0,0,1,95.66,29v2.92h-.72V29a2.07,2.07,0,0,0-.39-1.39,1.26,1.26,0,0,0-1-.44,1.37,1.37,0,0,0-1.15.55A1.8,1.8,0,0,0,92,29v2.92h-.72V29a2,2,0,0,0-.27-1.24,1.37,1.37,0,0,0-1.15-.56,1.29,1.29,0,0,0-1.11.54A2,2,0,0,0,88.44,29v2.93h-.73Z"/><path class="cls-2" d="M97,29.47a2,2,0,0,0,2,1.94,2,2,0,0,0,1.81-1.08h.75a2.89,2.89,0,0,1-1.06,1.28A2.79,2.79,0,0,1,99,32a2.81,2.81,0,1,1,2.73-2.57ZM101,28.9a2,2,0,0,0-4,0Z"/><path class="cls-2" d="M102.38,26.64h.68c0,.3,0,.59,0,.94a2,2,0,0,1,2-1.08,2.11,2.11,0,0,1,2.2,2.41v3h-.71V29.05c0-1.13-.51-1.9-1.69-1.88a1.59,1.59,0,0,0-1.7,1.76v3h-.72Z"/><path class="cls-2" d="M108.62,27.22h-1v-.58h1v-2h.71v2h1.15v.58h-1.15v4.67h-.71Z"/><line class="cls-3" x1="71.1" y1="2.96" x2="72.16" y2="3.3"/><path class="cls-4" d="M86.85,13.32h-.51v0h-.18v-.2h-.1v-.28l-.21,0V11.55l0,0h-.11v0H85v-.29l-1.19,0v.18h0v.09h-.64V6.54l-.41-.11h0l-.09,0-3.86.08V12h-.22v-.29l-.17,0H78v.21h0V12h-.28V7.08L77.62,7,77.55,6l0-.1c0-.13,0-.43,0-.57a.29.29,0,0,0-.08-.2l-.12,0-4,.07s-.06,0-.08.1v.22h0v.4l0,.1h0l-.08.87h0V7H73V8.48h-.19v4h0v.07h-.45V12h-.16v0h-.09V3.3L71.1,3V3h-.28v0l-.91,0H68.72V5h-.21V4.66l-.09,0h0V4.55a1.26,1.26,0,0,0-.75-1.09h0V3.3a.07.07,0,0,0,0,0,1.67,1.67,0,0,0-.46,0,1.75,1.75,0,0,0-.47,0s0,0,0,0v.07l0,.1a1.24,1.24,0,0,0-.72,1h0l-.1.14V4.9L65.67,5v.5l-.13.1,0,.07v.65l-.23.1,0,0V7.64h0v3.44h-.73V9.62h-.07V8.84l-.91-.1h-.12l0-.09V8.5l-.21,0h-.1l-.74,0v.25h0l-.6,0h-.69v.83H59.84V9.25l-.51,0h-.09l-1.13,0h-.39V8.5h-.18V8.44l-.12,0V8.33L56.51,8h-.34l-.09-.09V7.72h0V7.65h0v-.2h0V7.39H56V7.2l-.1-.09-.1.09v.19h-.09v.06h0v.2h0v.07h0v.22h-.48l-.77.33h.08l-.21.1v.1H54V11h-.09l-.29,0v-.13l-.37-.31h0l0-.33h0V9.91h0v0h0v.24h0v.33l-.25.2h0l-.11.1-.51,0h-.24V8.64l-.21,0V8.53h-.14V8.43h0l-.76-.3h-.35L50.34,8V7.87h0V7.8h0V7.6h0V7.54h-.08V7.35l-.1-.09-.1.09v.19H50V7.6h0v.2h0v.07h0v.26h-.51l-.67.25h-.1l-1.11-.08h-.12l-.58.81v.62h-.15v.82h-.25v.94h-.11l-.13,0v.17h0v.1H45.22v0h-.34v.09H44v-.13l-.08,0v-.06l-.05,0h-.84v0h-.75l-.51,0v.45h-.08v-.35h-.43l-.06.06v.27h-.3l-.06.08v.16l-.12,0h0L33,12.3h-.51a2.72,2.72,0,0,0-.43,0l-.33.1h-.05v-.09h0v-.28H31.2v.18h0v.1h-.34V12h-.6v.43h-.37v.16H30v1.05h-.94a.25.25,0,0,0-.14.19.47.47,0,0,0,0,.15h-.14v2.83l2.64-.93H86.94V13.33Z"/><polygon class="cls-4" points="45.75 11.69 45.31 11.69 45.31 11.71 45.75 11.7 45.75 11.69"/><path class="cls-5" d="M6.21,28.84c0-7.18,25.93-13,57.92-13,18.58,0,35.1,2,45.7,5-10.08-4-29.19-6.61-51.12-6.61C26.28,14.24,0,20.06,0,27.25,0,30.81,6.47,34,17,36.39,10.19,34.26,6.21,31.66,6.21,28.84Z"/></g></g></svg>