<?xml version="1.0" encoding="UTF-8"?>
<svg id="Layer_2" data-name="Layer 2" xmlns="http://www.w3.org/2000/svg" viewBox="0 0 124.17 43.95">
  <defs>
    <style>
      .cls-1 {
        fill: #fff;
      }
    </style>
  </defs>
  <g id="Layer_1-2" data-name="Layer 1">
    <g>
      <path class="cls-1" d="M20.72,12.51c0,1.67-.3,3.23-.89,4.68-.59,1.45-1.47,2.72-2.64,3.8-1.17,1.08-2.61,1.93-4.34,2.55-1.73.62-3.73.93-6,.93H0V.59h6.84c2.27,0,4.27.31,6,.93,1.73.62,3.18,1.47,4.34,2.55,1.17,1.08,2.05,2.34,2.64,3.79.59,1.45.89,3,.89,4.65ZM16.99,12.57c0-1.46-.17-2.72-.5-3.81-.33-1.08-.78-2.01-1.35-2.78-.57-.77-1.23-1.41-1.99-1.9s-1.56-.89-2.41-1.17c-.85-.28-1.71-.48-2.61-.59-.89-.11-1.76-.16-2.61-.16h-2.01v20.73h2.01c.85,0,1.72-.05,2.61-.16.89-.11,1.76-.3,2.61-.59.85-.28,1.65-.67,2.41-1.17.76-.49,1.42-1.12,1.99-1.89.57-.76,1.02-1.68,1.35-2.75s.5-2.33.5-3.77Z"/>
      <path class="cls-1" d="M39.83.59v1.57h-11.1v7.24h10.76v1.57h-10.76v11.92h11.1v1.57h-14.61V.59h14.61Z"/>
      <path class="cls-1" d="M48.16,22.9h9.83v1.57h-13.34V.59h3.52v22.3Z"/>
      <path class="cls-1" d="M76.94.59c1.36,0,2.53.12,3.52.36.99.24,1.83.56,2.52.96.69.4,1.25.85,1.67,1.37s.75,1.04.98,1.59.39,1.09.47,1.63c.08.54.12,1.04.12,1.5,0,.59-.09,1.25-.28,1.98-.19.73-.53,1.43-1.01,2.12-.49.69-1.15,1.3-2,1.86-.85.55-1.92.94-3.23,1.18l6.91,9.35h-4.3l-6.74-9.11h-2.6v9.11h-3.52V.59h7.5ZM72.96,2.17v11.61h2.01c1.15,0,2.18-.1,3.11-.31.93-.21,1.72-.55,2.38-1.01.66-.46,1.16-1.07,1.52-1.81.35-.74.53-1.65.53-2.71,0-1.2-.21-2.18-.64-2.93-.43-.75-.99-1.34-1.69-1.76-.7-.42-1.5-.7-2.4-.85-.9-.15-1.82-.22-2.76-.22h-2.04Z"/>
      <path class="cls-1" d="M94.42,24.47h-3.53V.59h3.53v23.88Z"/>
      <path class="cls-1" d="M111.45,24.94c-1.18,0-2.31-.15-3.4-.45s-2.1-.72-3.05-1.26c-.95-.54-1.81-1.19-2.59-1.95-.78-.76-1.44-1.6-2-2.53-.56-.93-.99-1.92-1.29-2.99-.3-1.07-.46-2.18-.46-3.33s.15-2.23.46-3.29c.31-1.06.74-2.05,1.29-2.97s1.22-1.76,2-2.52,1.64-1.41,2.59-1.94c.95-.54,1.96-.95,3.05-1.25s2.22-.45,3.4-.45,2.29.15,3.37.44c1.08.29,2.09.71,3.04,1.25.94.54,1.8,1.19,2.58,1.95.78.76,1.44,1.6,1.99,2.52.55.92.98,1.91,1.28,2.97.3,1.06.46,2.16.46,3.29s-.15,2.27-.46,3.33-.73,2.06-1.28,2.99c-.55.93-1.22,1.77-1.99,2.53-.78.76-1.63,1.41-2.58,1.95-.94.54-1.95.96-3.04,1.26s-2.21.45-3.37.45ZM111.45,23.38c1.46,0,2.74-.28,3.86-.85,1.12-.57,2.06-1.34,2.82-2.33.76-.99,1.33-2.14,1.73-3.48.39-1.33.59-2.76.59-4.3s-.19-2.94-.58-4.27c-.39-1.33-.96-2.48-1.71-3.45-.75-.97-1.69-1.74-2.82-2.3-1.12-.56-2.42-.84-3.89-.84s-2.79.28-3.91.84c-1.12.56-2.06,1.33-2.81,2.3-.75.97-1.32,2.13-1.7,3.45s-.57,2.75-.57,4.27.19,2.96.58,4.3c.39,1.33.96,2.49,1.71,3.48.75.98,1.69,1.76,2.82,2.33s2.42.85,3.89.85Z"/>
      <path class="cls-1" d="M18.15,43.67h-1.8l-.64-1.51h-6.35l-.62,1.51h-.95l4.26-10.12-.62-1.49h1.83l4.91,11.62ZM9.67,41.4h5.71l-2.88-6.75-2.83,6.75Z"/>
      <path class="cls-1" d="M22.13,40.62v3.05h-1.71v-11.62h2.91c.82,0,1.52.07,2.1.21s1.07.32,1.47.55.71.49.95.79.42.61.55.93.21.64.25.96.06.62.06.89-.02.56-.07.88-.13.63-.27.94-.32.61-.56.9-.56.55-.96.77-.89.4-1.46.54-1.26.2-2.06.2h-1.2ZM22.13,32.82v7.03h.96c.58,0,1.1-.07,1.57-.2s.87-.34,1.2-.62.58-.65.76-1.1.27-.99.27-1.62c0-.48-.05-.91-.14-1.27s-.22-.67-.39-.93-.37-.47-.6-.64-.49-.3-.77-.4-.58-.17-.89-.2-.65-.05-.98-.05h-.99Z"/>
      <path class="cls-1" d="M39.84,43.67h-1.8l-.64-1.51h-6.35l-.62,1.51h-.95l4.26-10.12-.62-1.49h1.83l4.91,11.62ZM31.37,41.4h5.71l-2.88-6.75-2.83,6.75Z"/>
      <path class="cls-1" d="M45.76,32.06c.66,0,1.23.06,1.71.18s.89.27,1.23.46.61.41.81.66.36.51.48.77.19.53.23.79.06.51.06.73c0,.29-.05.61-.14.96s-.25.7-.49,1.03-.56.63-.97.9-.93.46-1.57.57l3.36,4.55h-2.09l-3.28-4.43h-1.27v4.43h-1.71v-11.62h3.65ZM43.82,32.82v5.65h.98c.56,0,1.06-.05,1.51-.15s.84-.27,1.16-.49.57-.52.74-.88.26-.8.26-1.32c0-.58-.1-1.06-.31-1.43s-.48-.65-.82-.86-.73-.34-1.17-.41-.89-.11-1.34-.11h-.99Z"/>
      <path class="cls-1" d="M59.42,32.06v.77h-2.81v10.85h-1.71v-10.85h-2.84v-.77h7.36Z"/>
      <path class="cls-1" d="M67.43,36.73l3.63-4.19v-.48h1.71v11.62h-1.71v-9.94l-4.1,4.73-4.08-4.75v9.95h-.8v-10.88l-.62-.73h2l3.97,4.67Z"/>
      <path class="cls-1" d="M83.62,32.06v.77h-5.4v3.52h5.23v.77h-5.23v5.8h5.4v.77h-7.11v-11.62h7.11Z"/>
      <path class="cls-1" d="M95.42,43.67h-1.31l-6.44-9.02v9.02h-.8v-10.14l-1.04-1.48h2.09l6.69,9.39v-9.39h.8v11.62Z"/>
      <path class="cls-1" d="M105.43,32.06v.77h-2.81v10.85h-1.71v-10.85h-2.84v-.77h7.36Z"/>
      <path class="cls-1" d="M110.44,31.81c.34,0,.64.02.9.05s.5.07.73.13.45.12.68.19.47.15.75.24l-.03.82c-.2-.07-.4-.13-.6-.2s-.42-.12-.64-.16-.46-.08-.71-.11-.52-.04-.8-.04c-.13,0-.28.02-.45.06s-.34.11-.49.21-.29.23-.4.39-.16.36-.16.6c0,.22.09.49.27.79.18.3.47.67.89,1.12l1.38,1.48c.3.31.59.62.87.93s.52.6.73.9.38.59.5.88.19.57.19.86c0,.55-.1,1.01-.3,1.39s-.46.69-.78.93-.68.41-1.09.52-.81.16-1.22.16c-.35,0-.68-.02-.99-.06s-.6-.1-.88-.17-.55-.17-.8-.28-.51-.24-.76-.39l.1-.84c.2.09.41.19.62.29s.43.18.65.26.45.14.68.18.46.07.69.07c.77,0,1.34-.16,1.73-.47s.59-.77.59-1.37c0-.18-.04-.37-.12-.55s-.19-.38-.33-.58-.31-.41-.5-.62-.39-.44-.61-.67l-1.39-1.52c-.35-.43-.65-.8-.89-1.11s-.43-.58-.57-.82-.25-.46-.3-.66-.09-.41-.09-.63c0-.42.09-.77.26-1.05s.4-.5.68-.67.6-.29.95-.36.72-.11,1.09-.11Z"/>
    </g>
  </g>
</svg>