<?xml version="1.0" encoding="UTF-8"?>
<svg id="Layer_2" data-name="Layer 2" xmlns="http://www.w3.org/2000/svg" viewBox="0 0 112.22 40.26">
  <defs>
    <style>
      .cls-1 {
        fill: #fff;
      }
    </style>
  </defs>
  <g id="Layer_1-2" data-name="Layer 1">
    <g>
      <path class="cls-1" d="M3.93,18.1c-1.26-.81-2.23-1.95-2.91-3.4-.68-1.46-1.02-3.14-1.02-5.04s.36-3.58,1.08-5.04c.72-1.46,1.73-2.59,3.02-3.4,1.3-.81,2.78-1.22,4.45-1.22,1.58,0,2.91.4,4,1.2l1.4-1.2h.48v5.7h-.48l-1.52-3.8c-1.1-.92-2.4-1.38-3.89-1.38-1.07,0-2.04.28-2.89.83-.85.55-1.52,1.36-2,2.42s-.72,2.32-.72,3.77v4.21c0,1.46.23,2.71.68,3.77s1.08,1.87,1.89,2.43c.81.56,1.74.84,2.82.84,1.32,0,2.34-.41,3.07-1.22.73-.81,1.09-1.9,1.09-3.27v-2.14l-2.14-.32v-.51h6.88v.51l-2.14.32v2.14c0,.87-.24,1.69-.71,2.45-.48.76-1.22,1.38-2.23,1.85-1.01.48-2.29.71-3.82.71-1.67,0-3.14-.41-4.39-1.22Z"/>
      <path class="cls-1" d="M18.65,18.4l1.61-.23V7.64l-1.61-.23v-.46h3.91v1.77c.97-1.32,2.05-1.98,3.27-1.98.58,0,1.1.15,1.54.45.44.3.67.72.67,1.28,0,.4-.13.73-.39,1-.26.27-.61.4-1.03.4-.49,0-.89-.19-1.2-.57.17-.21.25-.44.25-.69,0-.26-.09-.47-.26-.63-.18-.16-.41-.24-.7-.24-.32,0-.65.15-.99.45-.34.3-.72.76-1.15,1.39v8.6l1.84.23v.46h-5.75v-.46Z"/>
      <path class="cls-1" d="M30.77,18.32c-.63-.51-.94-1.28-.94-2.29,0-1.44.61-2.46,1.82-3.07,1.21-.61,2.61-.91,4.21-.91h1.54v-1.77c0-.8-.09-1.41-.26-1.85s-.45-.74-.82-.92c-.37-.18-.87-.26-1.5-.26-.72,0-1.26.14-1.61.43-.35.28-.53.66-.53,1.14,0,.44.21.74.64.87,0,.38-.15.72-.44,1.01s-.64.44-1.04.44c-.43,0-.77-.12-1.04-.36s-.39-.6-.39-1.09c0-.89.44-1.6,1.33-2.14.89-.54,2-.81,3.33-.81,3.07,0,4.6,1.33,4.6,4v6.58c0,.34.07.59.22.77.15.18.36.26.63.26.26,0,.47-.09.62-.26s.23-.42.23-.72h.48c0,.54-.17.96-.52,1.27-.34.31-.82.46-1.44.46-.71,0-1.3-.2-1.78-.61-.48-.41-.73-1.04-.75-1.9-.37.78-.93,1.4-1.69,1.84-.76.44-1.6.67-2.52.67-.98,0-1.79-.26-2.42-.77ZM35.73,17.71c.44-.25.81-.6,1.12-1.07.31-.47.49-1.03.55-1.69v-2.39h-1.54c-1.26,0-2.2.28-2.82.84s-.93,1.35-.93,2.36c0,.84.2,1.44.6,1.79.4.35.98.53,1.75.53.41,0,.84-.12,1.28-.37Z"/>
      <path class="cls-1" d="M44.76,18.28c-.84-.54-1.27-1.23-1.27-2.09,0-.44.12-.79.36-1.05s.56-.38.95-.38c.31,0,.57.08.78.23s.37.37.46.64c-.34.37-.51.76-.51,1.17,0,.48.21.89.64,1.24.43.35,1,.53,1.73.53.97,0,1.76-.22,2.37-.66.61-.44.92-1.02.92-1.76,0-.43-.13-.75-.39-.97-.26-.21-.77-.46-1.52-.74l-3.47-1.27c-1.36-.49-2.05-1.4-2.05-2.74,0-1.09.38-1.98,1.13-2.68.75-.7,1.79-1.05,3.1-1.05,1.09,0,2.02.25,2.79.75.77.5,1.16,1.21,1.16,2.13,0,.37-.1.66-.3.89-.2.22-.46.33-.78.33s-.59-.09-.79-.26-.31-.42-.31-.72c.2-.15.34-.32.41-.49.08-.18.12-.39.12-.63,0-.43-.19-.78-.56-1.06-.38-.28-.95-.41-1.74-.41-.67,0-1.25.1-1.74.31s-.85.48-1.09.82c-.25.34-.37.68-.37,1.03s.13.66.4.87c.27.21.76.45,1.48.71l3.22,1.15c.75.28,1.32.66,1.7,1.15.38.49.57,1.13.57,1.91,0,1.12-.35,2.05-1.06,2.78-.71.74-1.78,1.1-3.22,1.1-1.26,0-2.31-.27-3.15-.81Z"/>
      <path class="cls-1" d="M54.53,18.4l1.61-.23V7.64l-1.61-.23v-.46h3.91v2.12c.55-.72,1.18-1.29,1.87-1.7s1.45-.62,2.27-.62c.94,0,1.7.2,2.29.61.59.41.96,1.02,1.12,1.83.55-.75,1.18-1.35,1.89-1.78.71-.44,1.48-.66,2.32-.66,1.09,0,1.94.27,2.54.82.61.54.91,1.37.91,2.47v8.14l1.61.23v.46h-5.29v-.46l1.38-.23v-8.1c0-.81-.15-1.43-.44-1.86-.29-.43-.77-.64-1.43-.64s-1.24.21-1.83.64c-.59.43-1.12.98-1.6,1.66v8.3l1.38.23v.46h-5.08v-.46l1.38-.23v-8.1c0-.81-.15-1.43-.44-1.86-.29-.43-.77-.64-1.43-.64s-1.24.21-1.83.64-1.12.98-1.6,1.66v8.3l1.38.23v.46h-5.29v-.46Z"/>
      <path class="cls-1" d="M80.22,18.32c-.92-.51-1.65-1.24-2.19-2.17-.54-.94-.81-2.02-.81-3.24s.26-2.3.79-3.23c.53-.93,1.24-1.65,2.14-2.16.9-.51,1.9-.77,3-.77.97,0,1.83.21,2.6.64.77.43,1.36,1.02,1.79,1.78.43.76.65,1.63.67,2.61h-8.46v2.28c0,1.35.3,2.44.91,3.28.61.84,1.48,1.25,2.63,1.25,1.06,0,1.99-.3,2.81-.9.81-.6,1.31-1.37,1.49-2.32h.53c-.21,1.13-.76,2.04-1.63,2.71-.87.68-1.94,1.01-3.2,1.01-1.13,0-2.16-.26-3.08-.77ZM85.7,11.2c0-1.33-.21-2.33-.62-2.98-.41-.65-1.06-.98-1.93-.98-1.03,0-1.82.36-2.39,1.08-.57.72-.89,1.68-.97,2.88h5.91Z"/>
      <path class="cls-1" d="M90.34,18.4l1.61-.23V7.64l-1.61-.23v-.46h3.91v1.77c.97-1.32,2.05-1.98,3.27-1.98.58,0,1.1.15,1.54.45.44.3.67.72.67,1.28,0,.4-.13.73-.39,1-.26.27-.61.4-1.04.4-.49,0-.89-.19-1.2-.57.17-.21.25-.44.25-.69,0-.26-.09-.47-.26-.63-.18-.16-.41-.24-.7-.24-.32,0-.65.15-.99.45-.34.3-.72.76-1.15,1.39v8.6l1.84.23v.46h-5.75v-.46Z"/>
      <path class="cls-1" d="M104.21,18.32c-.92-.51-1.65-1.24-2.18-2.17-.54-.94-.8-2.02-.8-3.24s.26-2.3.79-3.23c.53-.93,1.24-1.65,2.14-2.16.9-.51,1.9-.77,3-.77.97,0,1.83.21,2.6.64.77.43,1.36,1.02,1.79,1.78.43.76.65,1.63.67,2.61h-8.46v2.28c0,1.35.3,2.44.91,3.28.61.84,1.48,1.25,2.63,1.25,1.06,0,1.99-.3,2.81-.9.81-.6,1.31-1.37,1.5-2.32h.53c-.21,1.13-.76,2.04-1.63,2.71-.87.68-1.94,1.01-3.2,1.01-1.13,0-2.16-.26-3.08-.77ZM109.69,11.2c0-1.33-.21-2.33-.62-2.98-.41-.65-1.06-.98-1.93-.98-1.03,0-1.83.36-2.39,1.08-.57.72-.89,1.68-.97,2.88h5.91Z"/>
      <path class="cls-1" d="M16.24,36.86v-.25l1.18-.48,3.47-9.11h.19l3.28,9.41,1.1.18v.25h-3.53v-.25l.98-.16-1.02-2.84h-3.19l-.97,2.52,1.08.48v.25h-2.57ZM18.79,33.36h3.01l-1.44-4.22-1.57,4.22Z"/>
      <path class="cls-1" d="M26.65,40.02l.84-.12v-8.88l-.84-.12v-.24h2.04v1.26c.2-.43.47-.77.81-1.01.34-.24.75-.37,1.22-.37.57,0,1.07.13,1.5.4.43.27.77.64,1.01,1.13.24.48.36,1.05.36,1.7s-.12,1.21-.36,1.7c-.24.48-.58.86-1.01,1.12-.43.26-.93.4-1.5.4-.47,0-.88-.12-1.22-.37-.34-.24-.61-.58-.81-1v4.28l1.13.12v.24h-3.17v-.24ZM32.27,34.36v-1.2c0-1.55-.56-2.33-1.67-2.33-.35,0-.67.1-.96.31-.29.2-.52.48-.68.82-.17.34-.26.72-.26,1.12v1.28c0,.41.08.79.25,1.15.16.36.39.64.68.85.29.21.62.32.98.32,1.11,0,1.67-.77,1.67-2.32Z"/>
      <path class="cls-1" d="M36.35,36.58c-.33-.27-.49-.67-.49-1.19,0-.75.32-1.29.95-1.6.63-.32,1.36-.47,2.2-.47h.8v-.92c0-.42-.05-.74-.14-.97-.09-.23-.23-.39-.43-.48s-.45-.14-.78-.14c-.38,0-.66.07-.84.22s-.28.35-.28.59c0,.23.11.38.34.46,0,.2-.08.38-.23.53-.15.15-.33.23-.54.23-.22,0-.4-.06-.54-.19s-.2-.31-.2-.57c0-.46.23-.84.7-1.12.46-.28,1.04-.42,1.74-.42,1.6,0,2.4.7,2.4,2.09v3.43c0,.18.04.31.11.4s.19.14.33.14c.14,0,.24-.05.32-.14s.12-.22.12-.38h.25c0,.28-.09.5-.27.66-.18.16-.43.24-.75.24-.37,0-.68-.11-.93-.32-.25-.21-.38-.54-.39-.99-.19.41-.49.73-.88.96s-.83.35-1.31.35c-.51,0-.93-.13-1.26-.4ZM38.94,36.26c.23-.13.42-.31.58-.56.16-.24.26-.54.29-.88v-1.25h-.8c-.66,0-1.15.15-1.47.44-.32.29-.49.7-.49,1.23,0,.44.1.75.31.94s.51.28.91.28c.22,0,.44-.06.67-.19Z"/>
      <path class="cls-1" d="M43.63,36.62l.84-.12v-5.5l-.84-.12v-.24h2.04v.92c.5-.69,1.07-1.03,1.7-1.03.3,0,.57.08.8.23.23.16.35.38.35.67,0,.21-.07.38-.2.52-.14.14-.32.21-.54.21-.26,0-.46-.1-.62-.3.09-.11.13-.23.13-.36,0-.14-.05-.25-.14-.33-.09-.08-.21-.13-.37-.13-.17,0-.34.08-.52.23-.18.16-.38.4-.6.73v4.49l.96.12v.24h-3v-.24Z"/>
      <path class="cls-1" d="M51.36,36.58c-.32-.26-.47-.68-.47-1.26v-4.32l-.85-.12v-.24h.85v-1l1.2-.3v1.3h1.56v.24l-1.56.12v4.3c0,.85.3,1.27.91,1.27.13,0,.25-.02.37-.06.12-.04.21-.08.28-.12s.11-.07.13-.08l.16.19c-.36.32-.79.48-1.3.48s-.95-.13-1.27-.4Z"/>
      <path class="cls-1" d="M55.5,36.62l.84-.12v-5.5l-.84-.12v-.24h2.04v1.1c.29-.38.61-.67.98-.89.36-.22.76-.32,1.18-.32.49,0,.89.11,1.19.32.31.21.5.53.58.95.29-.39.62-.7.98-.93.37-.23.77-.34,1.21-.34.57,0,1.01.14,1.33.43.32.28.47.71.47,1.29v4.25l.84.12v.24h-2.76v-.24l.72-.12v-4.22c0-.42-.08-.75-.23-.97-.15-.22-.4-.34-.74-.34s-.65.11-.95.34c-.31.22-.59.51-.83.86v4.33l.72.12v.24h-2.65v-.24l.72-.12v-4.22c0-.42-.08-.75-.23-.97-.15-.22-.4-.34-.74-.34s-.65.11-.95.34c-.31.22-.59.51-.83.86v4.33l.72.12v.24h-2.76v-.24Z"/>
      <path class="cls-1" d="M69.81,36.58c-.48-.27-.86-.65-1.14-1.13-.28-.49-.42-1.05-.42-1.69s.14-1.2.41-1.69c.28-.48.65-.86,1.12-1.13.47-.27.99-.4,1.57-.4.5,0,.96.11,1.36.34.4.22.71.53.94.93.22.4.34.85.35,1.36h-4.42v1.19c0,.7.16,1.27.47,1.71.32.44.77.65,1.37.65.55,0,1.04-.16,1.46-.47.42-.31.68-.72.78-1.21h.28c-.11.59-.4,1.06-.85,1.42-.46.35-1.01.53-1.67.53-.59,0-1.13-.13-1.61-.4ZM72.66,32.86c0-.7-.11-1.21-.32-1.55-.22-.34-.55-.51-1.01-.51-.54,0-.95.19-1.25.56s-.46.88-.5,1.5h3.08Z"/>
      <path class="cls-1" d="M75.99,36.62l.84-.12v-5.5l-.84-.12v-.24h2.04v1.3c.3-.43.64-.77,1.04-1.03.4-.25.83-.38,1.3-.38.58,0,1.03.14,1.36.43s.5.72.5,1.28v4.25l.84.12v.24h-2.76v-.24l.72-.12v-4.22c0-.42-.08-.74-.25-.97s-.43-.34-.78-.34-.72.13-1.06.4c-.34.27-.64.6-.91.99v4.14l.72.12v.24h-2.76v-.24Z"/>
      <path class="cls-1" d="M86.02,36.58c-.32-.26-.47-.68-.47-1.26v-4.32l-.85-.12v-.24h.85v-1l1.2-.3v1.3h1.56v.24l-1.56.12v4.3c0,.85.3,1.27.91,1.27.13,0,.25-.02.37-.06.12-.04.21-.08.28-.12s.11-.07.13-.08l.16.19c-.36.32-.79.48-1.3.48s-.95-.13-1.27-.4Z"/>
      <path class="cls-1" d="M90.84,36.56c-.44-.28-.66-.64-.66-1.09,0-.23.06-.41.19-.55.12-.13.29-.2.5-.2.16,0,.3.04.41.12.11.08.19.19.24.34-.18.19-.26.4-.26.61,0,.25.11.46.34.65.22.18.52.28.9.28.5,0,.92-.11,1.24-.34s.48-.53.48-.92c0-.22-.07-.39-.21-.5-.13-.11-.4-.24-.79-.38l-1.81-.66c-.71-.26-1.07-.73-1.07-1.43,0-.57.2-1.03.59-1.4.39-.36.93-.55,1.62-.55.57,0,1.05.13,1.46.39.4.26.61.63.61,1.11,0,.19-.05.35-.16.46-.1.12-.24.17-.41.17s-.31-.05-.41-.14c-.11-.09-.16-.22-.16-.38.1-.08.18-.17.22-.26.04-.09.06-.2.06-.33,0-.22-.1-.41-.29-.55-.2-.14-.5-.22-.91-.22-.35,0-.65.05-.91.16s-.44.25-.57.43c-.13.18-.19.36-.19.54s.07.34.21.46c.14.11.4.24.77.37l1.68.6c.39.14.69.34.89.6.2.26.3.59.3,1,0,.58-.18,1.07-.55,1.45-.37.38-.93.58-1.68.58-.66,0-1.2-.14-1.64-.42Z"/>
    </g>
  </g>
</svg>