<?xml version="1.0" encoding="utf-8"?>
<!-- Generator: Adobe Illustrator 22.0.1, SVG Export Plug-In . SVG Version: 6.00 Build 0)  -->
<svg version="1.1" id="Layer_1" xmlns="http://www.w3.org/2000/svg" xmlns:xlink="http://www.w3.org/1999/xlink" x="0px" y="0px"
	 viewBox="0 0 354.9 206.3" style="enable-background:new 0 0 354.9 206.3;" xml:space="preserve">
<style type="text/css">
	.st0{fill:#808285;}
	.st1{fill:#231F20;}
	.st2{fill:none;stroke:#231F20;stroke-width:0.1;stroke-miterlimit:3.86;}
	.st3{fill:#FFFFFF;}
	.st4{fill:#A8996E;}
</style>
<title>pmr</title>
<g id="Layer_2_1_">
	<g id="Layer_1-2">
		<polyline class="st0" points="177.8,29 177.8,35.8 0,56.3 		"/>
		<polyline class="st0" points="177.8,29 177.8,35.8 11.2,101.8 		"/>
		<polyline class="st0" points="177.8,29 177.8,35.8 35.5,147.1 		"/>
		<polyline class="st0" points="177.8,29 177.8,35.8 72.5,180.8 		"/>
		<polyline class="st0" points="177.8,29 178.8,35.3 118.4,199.6 		"/>
		<polyline class="st0" points="177.8,29 354.9,56.3 178.2,35.8 		"/>
		<polyline class="st0" points="177.8,29 343.9,101.9 177.8,35.8 		"/>
		<polyline class="st0" points="177.8,29 320.1,146.5 177.8,35.8 		"/>
		<polyline class="st0" points="177.3,29 283.1,180.4 177.3,36.6 		"/>
		<polyline class="st0" points="177.8,29 238,199.2 177.3,37.1 		"/>
		<polyline class="st0" points="175.8,32 179.8,32 177.8,206.3 		"/>
		<rect x="95.4" y="110.7" class="st1" width="170.8" height="28.6"/>
		<rect x="95.4" y="110.7" class="st2" width="170.8" height="28.6"/>
		<path class="st1" d="M113.1,58h2.2c7.6,0,11.2,4.7,11.2,11.9c0,7.4-2.7,12.8-8.7,12.8h-1.6v2.2c1.7,0,3.6,0,5.9-0.1
			c8.1-0.8,14.3-6.4,14.3-15.2c0-10.9-7.3-14.3-17.4-14.3c-3.3,0-7,0.3-10.8,0.3s-7.7-0.3-10.4-0.3v2.2h0.9c3.6,0,5,0.9,5,5.9v35.7
			c0,6-2.4,6-4.7,6h-1.2v2.2c4.2,0,8.2-0.3,12.3-0.3c3.8,0,7.5,0.3,11.3,0.3v-2.2h-1.2c-3.8,0-7-0.2-7-6.2L113.1,58"/>
		<path class="st1" d="M157.6,55.4c-2.2,0-4.4,0.3-6.7,0.3c-3,0-6-0.3-9-0.3v2.2h1c3.3,0,6.4,1.4,6.4,5.6c-0.1,4.4-0.4,8.8-0.9,13.1
			l-2.2,20.8c-0.7,5.4-0.9,7.9-6.7,8.1h-1v2.2c2.9-0.2,5.9-0.3,8.7-0.3c3.3,0,6.7,0.2,10.1,0.3v-2.2h-0.9c-2.1-0.1-3.6-0.2-4.7-0.8
			c-1-0.7-1.6-1.9-1.6-4.3l2.5-32.8h0.1l17.9,41.2h1.8l18.9-42h0.1l2.1,31.5c0.1,1.9,0.1,2.8,0.1,3.7c0,3.3-2.5,3.3-6.4,3.5v2.2
			c4.1-0.2,8.1-0.3,12.2-0.3c3.6,0,7.2,0.2,10.7,0.3v-2.3c-4.4-0.2-6.3-0.4-6.6-4.2l-2.8-34.2c-0.2-1.9-0.4-3.9-0.4-5.8
			c0.1-3.3,4.7-3.4,6.9-3.4h0.7v-2.2c-2.6,0-5.3,0.3-7.8,0.3s-5.3-0.3-7.6-0.3l-17.5,39l-17.3-39"/>
		<path class="st1" d="M229,58.3c1.4-0.2,2.8-0.3,4.2-0.3c6.6,0,10.8,4.2,10.8,10.9c0,8.8-4,11.6-11.4,11.6H229V58.3 M219.5,101.2
			c0,2.8-2.5,4-5.3,4H213v2.2c3.7,0,7.2-0.3,10.7-0.3c4.2,0,8.5,0.3,12.7,0.3v-2.2h-1.4c-3.4,0-6.1-0.2-6.1-6v-16h4.9
			c4.6,8.4,9.7,16.5,15.4,24.2c2.3,0,4.7-0.3,7-0.3c2.5,0,4.8,0.3,7.3,0.3v-2.2c-3.6-0.4-5.1-1.3-7.2-4.5l-12.7-19.1
			c5.8-2.3,10.3-6.4,10.3-13.1c0-10.6-8.3-13.1-17.6-13.1c-3.9,0-7.5,0.3-11.9,0.3s-9.1-0.3-11.5-0.3v2.2h1.3c2.3,0,5.3,0.2,5.3,5.7
			L219.5,101.2z"/>
		<path class="st3" d="M121.2,121.4c-0.2-1.4-0.2-2.8-0.2-4.3c-2.4-0.4-3.3-1.3-6.3-1.3c-5.2,0-9.8,3.3-9.8,9c0,6.4,4.2,9.6,9.9,9.6
			c2,0,4-0.4,5.8-1.1c0.1-1.4,0.3-2.8,0.6-4.1l-0.7-0.1c-0.4,2.5-2.6,4.3-5.2,4.3c-4.8,0-6.9-4.3-6.9-8.6c0-4.5,2.2-7.8,6.3-7.8
			c3.8,0,5,2,5.7,4.5L121.2,121.4"/>
		<path class="st3" d="M123.2,125.2c0,5.5,4.1,9.2,9.5,9.2s9.6-3.9,9.6-9.8c0-5.4-4.3-8.8-9.7-8.8c-5.1-0.1-9.3,4-9.3,9.2
			C123.2,125.1,123.2,125.2,123.2,125.2"/>
		<path class="st3" d="M150.2,116.2c-0.8,0-1.5,0.1-2.3,0.1c-1,0-2-0.1-3.1-0.1v0.8h0.3c1.1,0,2.2,0.5,2.2,1.9c0,1.5-0.1,3-0.3,4.5
			l-0.8,7.1c-0.2,1.8-0.3,2.7-2.3,2.8h-0.4v0.7c1,0,2-0.1,3-0.1c1.1,0,2.3,0,3.4,0.1v-0.8h-0.3c-0.6,0-1.1-0.1-1.6-0.3
			c-0.3-0.2-0.5-0.6-0.5-1.5l0.9-11.2l6.1,14.1h0.6l6.5-14.4l0.7,10.8c0,0.7,0,0.9,0,1.2c0,1.1-0.9,1.1-2.2,1.2v0.8
			c1.4,0,2.8-0.1,4.2-0.1c1.2,0,2.5,0,3.6,0.1v-0.8c-1.5,0-2.2-0.1-2.3-1.4l-1-11.7c-0.1-0.7-0.1-1.3-0.1-2c0.1-1.1,1.6-1.1,2.4-1.1
			h0.2v-0.8c-0.9,0-1.8,0.1-2.7,0.1s-1.8-0.1-2.6-0.1l-6,13.3L150.2,116.2"/>
		<path class="st3" d="M174.4,117.1h0.7c2.6,0,3.8,1.6,3.8,4.1s-0.9,4.4-3,4.4h-0.5v0.8c0.6,0,1.2,0,2,0c2.8-0.1,4.9-2.4,4.9-5.2
			c0-3.7-2.5-4.9-5.9-4.9c-1.1,0-2.4,0.1-3.7,0.1s-2.6-0.1-3.5-0.1v0.7h0.3c1.2,0,1.7,0.3,1.7,2v12.2c0,2-0.8,2.1-1.6,2.1h-0.4v0.7
			c1.4,0,2.8-0.1,4.2-0.1s2.6,0.1,3.9,0.1v-0.8h-0.4c-1.3,0-2.4,0-2.4-2.1L174.4,117.1"/>
		<path class="st3" d="M186.5,127.7h5.7l1,3c0.2,0.6,0.4,1.2,0.5,1.8c0,0.6-1,0.7-1.6,0.7h-0.3v0.7c1.3,0,2.6-0.1,3.8-0.1
			s2.4,0,3.5,0.1v-0.8H199c-0.7,0.1-1.4-0.3-1.7-1c-0.3-0.8-0.6-1.7-0.9-2.6l-4.7-13.3l-0.2-0.6c0-0.1-0.1-0.1-0.2-0.1
			c-0.1,0-0.1,0-0.2,0.1c-0.7,0.4-1.5,0.8-2.3,1.1c-0.2,1.1-0.5,2.1-0.9,3.2l-4,11.7c-0.3,1-1.2,1.7-2.2,1.7h-0.1v0.7
			c0.9,0,1.8-0.1,2.7-0.1s2.1,0,3.1,0.1v-0.8H187c-0.8,0-1.9-0.1-1.9-0.9c0.1-0.7,0.3-1.4,0.6-2L186.5,127.7"/>
		<path class="st3" d="M205,116.2c-0.8,0-1.5,0.1-2.3,0.1c-1,0-2-0.1-2.9-0.1v0.8h0.3c1.3,0,2.3,1,2.3,2.3c0,0,0,0,0,0V130
			c0,2-0.5,3.2-2.3,3.2h-0.4v0.8c1.1,0,2.3-0.1,3.4-0.1s2.2,0.1,3.3,0.1v-0.8h-0.4c-2,0-2.4-0.8-2.4-3v-10.5l13,14.7h1
			c-0.1-0.9-0.2-1.7-0.2-2.6v-11.6c0-3,1.2-3.2,2.3-3.2h0.4v-0.8c-1,0-2.1,0.1-3.1,0.1c-1.2,0-2.4-0.1-3.5-0.1v0.8h0.6
			c1.2-0.1,2.1,0.8,2.2,2c0,0.1,0,0.3,0,0.4l-0.1,9.6L205,116.2"/>
		<path class="st3" d="M220.9,134c1,0,2.5-0.1,3.7-0.1s2.8,0.1,4,0.1v-0.8h-0.4c-0.9,0-1.9-0.1-1.9-1.5v-13.3c0-1.3,1-1.4,1.9-1.4
			h0.4v-0.8c-1.2,0-2.7,0.1-4,0.1s-2.8-0.1-3.8-0.1v0.8h0.4c0.9,0,1.9,0.1,1.9,1.4v13.4c0,1.3-1,1.5-1.9,1.5h-0.4L220.9,134"/>
		<path class="st3" d="M229.4,134c1.4,0,4.4-0.1,6.7-0.1s5.2,0.1,6.8,0.1c0.2-1.4,0.5-2.7,0.9-4l-0.7-0.2c-0.8,2.9-2.1,3.1-5.1,3.1
			c-1.6,0-3.1,0-3.1-1.7v-6h3c1.8,0,1.8,1,2,2.5l0.8-0.2c0-1-0.1-1.9-0.1-2.9s0-2,0.1-3h-0.8c-0.2,1.4-0.5,2.2-2,2.2h-3v-6.7h3.5
			c2.7,0,3,1.3,3.1,3l0.8-0.2c-0.1-1.1-0.1-2.8-0.1-3.9c-1.7,0-4.4,0.1-6.5,0.1s-4.8-0.1-6.3-0.1v0.8h0.4c0.9,0,1.9,0.1,1.9,1.4
			v13.4c0,1.3-1,1.5-1.9,1.5h-0.4L229.4,134"/>
		<path class="st3" d="M255.2,119.9c-0.2-1.2-0.2-2.4-0.2-3.7c-0.8-0.1-2.9-0.4-3.6-0.4c-3.3,0-5.6,2-5.6,5.3c0,6.2,7.4,4.8,7.4,9.3
			c0,1.6-1.3,2.9-2.9,2.9c-0.1,0-0.2,0-0.3,0c-2.4,0-3.6-1.9-3.9-4l-0.7,0.2c0.1,1.3,0.3,2.6,0.4,3.9c1.2,0.7,2.6,1.1,4,1.2
			c3.2,0,6.1-1.8,6.1-5.4c0-6.1-7.6-4.8-7.6-9.1c-0.2-1.6,0.9-3,2.5-3.2c0.2,0,0.4,0,0.6,0c1.7,0,2.8,1.6,3,3.2L255.2,119.9"/>
		<path class="st1" d="M126.7,124.3c0-3.4,1.3-7.4,5.7-7.4c4.2,0,6.2,4.5,6.2,8.2c0,3.7-0.9,8.1-5.8,8.1
			C128.8,133.3,126.7,128.9,126.7,124.3"/>
		<polyline class="st1" points="191.7,126.3 187,126.3 189.4,119.1 191.7,126.3 		"/>
		<path class="st4" d="M110.6,57.7h2.2c7.6,0,11.2,4.6,11.2,11.7c0,7.3-2.7,12.6-8.7,12.6h-1.6v2.2c1.7,0,3.6,0,5.9-0.1
			c8.2-0.8,14.3-6.3,14.3-15c0-10.8-7.3-14.1-17.4-14.1c-3.3,0-7,0.3-10.8,0.3S97.9,55,95.2,55v2.2h0.9c3.6,0,5,0.9,5,5.8v35.2
			c0,5.9-2.4,6-4.7,6h-1.2v2.2c4.2,0,8.2-0.3,12.3-0.3c3.8,0,7.5,0.3,11.3,0.3v-2.2h-1.2c-3.8,0-7-0.2-7-6.1L110.6,57.7"/>
		<path class="st4" d="M155.1,55c-2.2,0-4.4,0.3-6.7,0.3c-3,0-6-0.3-9-0.3v2.2h1c3.3,0,6.4,1.4,6.4,5.5c-0.1,4.3-0.4,8.7-0.9,13
			l-2.2,20.5c-0.7,5.3-0.9,7.8-6.7,8h-1v2.2c2.9-0.2,5.9-0.3,8.7-0.3c3.3,0,6.8,0.1,10.1,0.3v-2.2h-0.9c-2.1-0.1-3.6-0.2-4.7-0.8
			s-1.6-1.8-1.6-4.2l2.5-32.3h0.1l17.9,40.7h1.8l18.9-41.5h0.1l2,31.1c0.1,1.9,0.1,2.7,0.1,3.6c0,3.2-2.5,3.2-6.4,3.5v2.2
			c4.1-0.2,8.1-0.3,12.2-0.3c3.6,0,7.2,0.1,10.7,0.3v-2.2c-4.4-0.2-6.3-0.4-6.6-4.1l-2.8-33.7c-0.2-1.9-0.4-3.8-0.4-5.7
			c0.1-3.2,4.7-3.4,6.9-3.4h0.7V55c-2.6,0-5.3,0.3-7.9,0.3S192.2,55,190,55l-17.6,38.6L155.1,55"/>
		<path class="st4" d="M226.6,58c1.4-0.2,2.8-0.3,4.2-0.3c6.6,0,10.8,4.2,10.8,10.8c0,8.7-4,11.5-11.4,11.5h-3.6L226.6,58
			 M217.1,100.3c0,2.7-2.5,4-5.3,4h-1.3v2.2c3.7,0,7.2-0.3,10.8-0.3c4.2,0,8.5,0.3,12.7,0.3v-2.2h-1.3c-3.4,0-6.1-0.2-6.1-5.9V82.6
			h4.9c4.6,8.3,9.7,16.3,15.4,23.9c2.3,0,4.7-0.3,7-0.3c2.3,0,4.8,0.3,7.3,0.3v-2.2c-3.6-0.4-5.1-1.3-7.2-4.4L241.3,81
			c5.9-2.3,10.3-6.3,10.3-13c0-10.5-8.3-13-17.6-13c-3.9,0-7.5,0.3-11.9,0.3s-9.1-0.3-11.5-0.3v2.2h1.3c2.3,0,5.3,0.2,5.3,5.6V100.3
			z"/>
		<rect x="92.8" y="109.7" class="st4" width="171" height="28.2"/>
		<path class="st1" d="M118.7,120.2c-0.2-1.4-0.2-2.8-0.2-4.2c-2.4-0.4-3.3-1.3-6.3-1.3c-5.2,0-9.8,3.3-9.8,8.9
			c0,6.3,4.2,9.4,9.9,9.4c2,0,4-0.4,5.8-1.1c0.1-1.4,0.3-2.7,0.6-4.1l-0.7-0.1c-0.5,2.5-2.6,4.3-5.2,4.2c-4.8,0-6.9-4.3-6.9-8.5
			c0-4.4,2.2-7.7,6.3-7.7c3.8,0,5,2,5.7,4.5L118.7,120.2"/>
		<path class="st1" d="M120.6,124c0,5.4,4.1,9,9.5,9c5.1,0.2,9.4-3.8,9.6-8.9c0-0.2,0-0.5,0-0.7c0-5.4-4.3-8.7-9.7-8.7
			c-5.1-0.1-9.3,4-9.3,9C120.6,123.8,120.6,123.9,120.6,124 M124.2,123.1c0-3.4,1.3-7.3,5.8-7.3c4.2,0,6.2,4.5,6.2,8.1s-0.9,8-5.8,8
			C126.3,131.9,124.2,127.6,124.2,123.1L124.2,123.1z"/>
		<path class="st1" d="M147.7,115.1c-0.8,0-1.5,0.1-2.3,0.1c-1,0-2-0.1-3.1-0.1v0.8h0.3c1.1,0,2.2,0.5,2.2,1.9c0,1.5-0.1,3-0.3,4.4
			l-0.8,7c-0.2,1.8-0.3,2.7-2.3,2.7h-0.4v0.8c1,0,2-0.1,3-0.1s2.3,0,3.4,0.1v-0.8h-0.3c-0.6,0-1.1-0.1-1.6-0.3
			c-0.3-0.2-0.5-0.6-0.5-1.4l0.9-11h0l6.1,13.9h0.6l6.5-14.2h0.1l0.7,10.6c0,0.6,0,0.9,0,1.2c0,1.1-0.9,1.1-2.2,1.2v0.8
			c1.4,0,2.8-0.1,4.2-0.1c1.2,0,2.5,0.1,3.6,0.1v-0.8c-1.5,0-2.1-0.1-2.2-1.4l-1-11.5c-0.1-0.7-0.1-1.3-0.1-2
			c0.1-1.1,1.6-1.2,2.4-1.2h0.2V115c-0.9,0-1.8,0.1-2.7,0.1s-1.8-0.1-2.6-0.1l-6,13.2L147.7,115.1"/>
		<path class="st1" d="M171.9,116h0.7c2.6,0,3.8,1.6,3.8,4s-0.9,4.3-3,4.3h-0.5v0.8c0.6,0,1.2,0,2,0c2.8-0.1,4.9-2.4,4.9-5.1
			c0-3.7-2.5-4.8-6-4.8c-1.1,0-2.4,0.1-3.7,0.1s-2.6-0.1-3.5-0.1v0.8h0.3c1.2,0,1.7,0.3,1.7,2v12c0,2-0.8,2-1.6,2h-0.4v0.8
			c1.4,0,2.8-0.1,4.2-0.1s2.6,0.1,3.9,0.1v-0.8h-0.4c-1.3,0-2.4,0-2.4-2.1L171.9,116"/>
		<path class="st1" d="M184,126.4h5.8l1,2.9c0.2,0.6,0.4,1.2,0.5,1.8c0,0.6-1,0.7-1.6,0.7h-0.3v0.8c1.3,0,2.6-0.1,3.8-0.1
			s2.4,0,3.5,0.1v-0.8h-0.1c-0.7,0.1-1.4-0.3-1.7-1c-0.3-0.8-0.6-1.7-0.9-2.6l-4.6-13.2c-0.1-0.2-0.1-0.4-0.2-0.6s-0.1-0.1-0.2-0.1
			c-0.1,0-0.1,0-0.2,0.1c-0.7,0.4-1.5,0.8-2.3,1.1c-0.2,1.1-0.5,2.1-0.9,3.1l-4,11.6c-0.3,1-1.2,1.6-2.2,1.6H179v0.8
			c0.9,0,1.8-0.1,2.7-0.1s2.1,0,3.1,0.1v-0.8h-0.3c-0.8,0-1.9-0.1-1.9-0.9c0.1-0.7,0.3-1.4,0.6-2L184,126.4 M189.2,125h-4.7l2.4-7.1
			l0,0L189.2,125z"/>
		<path class="st1" d="M202.5,115.1c-0.8,0-1.5,0.1-2.3,0.1c-1,0-1.9-0.1-2.9-0.1v0.8h0.3c1.2,0,2.3,1,2.3,2.2c0,0,0,0,0,0v10.6
			c0,2-0.5,3.2-2.3,3.2h-0.4v0.8c1.1,0,2.3-0.1,3.4-0.1s2.2,0.1,3.3,0.1v-0.8h-0.4c-2,0-2.4-0.8-2.4-2.9v-10.4l13,14.5h1
			c-0.1-0.8-0.2-1.7-0.1-2.5v-11.4c0-3,1.2-3.2,2.2-3.2h0.4v-0.8c-1,0-2.1,0.1-3.1,0.1s-2.4-0.1-3.5-0.1v0.8h0.6
			c1.1-0.1,2.1,0.8,2.2,1.9c0,0.1,0,0.3,0,0.4v9.4h-0.1L202.5,115.1"/>
		<path class="st1" d="M218.5,132.7c1,0,2.5-0.1,3.7-0.1s2.8,0.1,4,0.1v-0.8h-0.4c-0.9,0-1.9-0.1-1.9-1.4v-13.2c0-1.3,1-1.4,1.9-1.4
			h0.4v-0.8c-1.2,0-2.7,0.1-4,0.1s-2.8-0.1-3.8-0.1v0.8h0.4c0.9,0,1.9,0.1,1.9,1.4v13.2c0,1.3-1,1.4-1.9,1.4h-0.4L218.5,132.7"/>
		<path class="st1" d="M227,132.7c1.4,0,4.5-0.1,6.7-0.1s5.2,0.1,6.8,0.1c0.2-1.3,0.5-2.7,0.9-4l-0.7-0.2c-0.8,2.9-2.1,3.1-5.1,3.1
			c-1.6,0-3.1,0-3.1-1.6v-5.9h3c1.8,0,1.8,1,2,2.5l0.8-0.2c0-1-0.1-1.9-0.1-2.9s0-2,0.1-3h-0.8c-0.1,1.4-0.5,2.2-2,2.2h-3v-6.5h3.5
			c2.7,0,3,1.3,3.1,3l0.8-0.2c-0.1-1.3-0.1-2.6-0.1-3.8c-1.7,0-4.4,0.1-6.5,0.1s-4.8-0.1-6.3-0.1v0.8h0.4c0.9,0,1.9,0.1,1.9,1.4
			v13.2c0,1.3-1,1.4-1.9,1.4H227V132.7"/>
		<path class="st1" d="M252.8,118.7c-0.2-1.2-0.2-2.4-0.2-3.6c-0.8-0.1-2.9-0.4-3.6-0.4c-3.3,0-5.6,1.9-5.6,5.2
			c0,6.1,7.4,4.7,7.4,9.1c0,1.6-1.3,2.9-2.9,2.9c-0.1,0-0.2,0-0.2,0c-2.4,0-3.6-1.9-3.9-4l-0.7,0.2c0.1,1.3,0.3,2.5,0.4,3.8
			c1.2,0.7,2.6,1.1,4,1.1c3.2,0,6.1-1.8,6.1-5.3c0-6.1-7.6-4.8-7.6-9c-0.2-1.6,1-3,2.5-3.2c0.2,0,0.4,0,0.6,0c1.7,0,2.8,1.6,3,3.2
			L252.8,118.7"/>
	</g>
</g>
<title>pmr</title>
<g>
	<path class="st3" d="M8.3,3.9c5,0,7.8,2.5,7.8,6.8c0,4.5-2.8,7.2-7.8,7.2H4.4v5.6H0V3.9H8.3z M4.4,14.1h3.7c2.5,0,3.8-1.1,3.8-3.3
		c0-2.2-1.4-3.3-3.8-3.3H4.4V14.1z"/>
	<path class="st3" d="M23.1,11.1c1-1.8,2.7-2.8,5-2.9v4c-3.1-0.3-5,1.4-5,3.9v7.2h-4.3v-15h4.3V11.1z"/>
	<path class="st3" d="M45.2,15.9c0,4.6-3.2,7.7-8,7.7c-4.8,0-8.1-3.1-8.1-7.7c0-4.6,3.2-7.6,8.1-7.6C42,8.2,45.2,11.3,45.2,15.9z
		 M33.5,15.9c0,2.5,1.5,4.1,3.7,4.1c2.2,0,3.7-1.7,3.7-4.1s-1.5-4.1-3.7-4.1C35,11.8,33.5,13.5,33.5,15.9z"/>
	<path class="st3" d="M53,7.8v1.3h3.5v3H53v11.4h-4.3V12h-2v-3h2V7.6c0-3.3,2.5-5.1,5.5-5.1c1.4,0,2.9,0.4,3.9,1.1l-1.5,3.1
		C56.1,6.3,55.4,6,54.8,6C53.8,6,53,6.6,53,7.8z"/>
	<path class="st3" d="M71.8,17.2H61c0.5,1.9,2,3,3.9,3c1.4,0,2.8-0.6,3.8-1.6l2.3,2.3c-1.5,1.7-3.7,2.6-6.4,2.6
		c-4.8,0-7.8-3.1-7.8-7.6c0-4.6,3.2-7.7,7.7-7.7C69.7,8.2,72.2,11.7,71.8,17.2z M67.8,14.7c-0.1-2-1.3-3.3-3.3-3.3
		c-1.9,0-3.2,1.3-3.5,3.3H67.8z"/>
	<path class="st3" d="M85.6,9.9l-1.5,2.9c-1.6-0.9-3.3-1.5-4.6-1.5c-1,0-1.7,0.3-1.7,1.1c0,2.3,7.9,1.1,7.9,6.4
		c0,3.1-2.7,4.7-6.1,4.7c-2.4,0-4.8-0.7-6.5-2.1l1.4-2.9c1.6,1.2,3.6,1.9,5.2,1.9c1.1,0,1.9-0.4,1.9-1.2c0-2.4-7.8-1.1-7.8-6.4
		c0-3.1,2.6-4.7,5.9-4.7C81.8,8.2,83.9,8.8,85.6,9.9z"/>
	<path class="st3" d="M99.5,9.9L98,12.8c-1.6-0.9-3.3-1.5-4.6-1.5c-1,0-1.7,0.3-1.7,1.1c0,2.3,7.9,1.1,7.9,6.4
		c0,3.1-2.7,4.7-6.1,4.7c-2.4,0-4.8-0.7-6.5-2.1l1.4-2.9c1.6,1.2,3.6,1.9,5.2,1.9c1.1,0,1.9-0.4,1.9-1.2c0-2.4-7.8-1.1-7.8-6.4
		c0-3.1,2.6-4.7,5.9-4.7C95.7,8.2,97.8,8.8,99.5,9.9z"/>
	<path class="st3" d="M106.9,4.1c0,1.4-0.9,2.4-2.3,2.4s-2.3-1-2.3-2.4s0.9-2.4,2.3-2.4S106.9,2.7,106.9,4.1z M102.5,23.4v-15h4.3
		v15H102.5z"/>
	<path class="st3" d="M125.7,15.9c0,4.6-3.2,7.7-8,7.7c-4.8,0-8.1-3.1-8.1-7.7c0-4.6,3.2-7.6,8.1-7.6
		C122.5,8.2,125.7,11.3,125.7,15.9z M114,15.9c0,2.5,1.5,4.1,3.7,4.1c2.2,0,3.7-1.7,3.7-4.1s-1.5-4.1-3.7-4.1
		C115.5,11.8,114,13.5,114,15.9z"/>
	<path class="st3" d="M143.5,14v9.4h-4.3v-8.2c0-1.9-1.1-3.1-3-3.1c-2.1,0-3.4,1.6-3.4,3.8v7.4h-4.3v-15h4.3V11
		c1.1-1.9,2.8-2.8,5.2-2.8C141.4,8.2,143.5,10.5,143.5,14z"/>
	<path class="st3" d="M156,21.6c-1,1.3-2.6,2-4.7,2c-3.2,0-5.2-2-5.2-4.7c0-2.8,2-4.5,5.7-4.5h4.1v-0.3c0-1.6-1.1-2.5-3.1-2.5
		c-1.3,0-2.9,0.4-4.5,1.3l-1.3-3c2.2-1.1,4.2-1.7,6.8-1.7c4,0,6.3,2,6.4,5.4l0,9.8H156V21.6z M155.9,18.3v-1.3h-3.4
		c-1.6,0-2.5,0.5-2.5,1.7c0,1.1,0.9,1.9,2.3,1.9C154.3,20.5,155.7,19.5,155.9,18.3z"/>
	<path class="st3" d="M164,23.4V2.7h4.3v20.7H164z"/>
	<path class="st3" d="M196.7,23.4V10.2l-5.2,11.2h-2.9l-5.2-11.2v13.2h-4V3.9h4.9l5.7,11.9l5.7-11.9h4.9v19.5H196.7z"/>
	<path class="st3" d="M213.6,21.6c-1,1.3-2.6,2-4.7,2c-3.2,0-5.2-2-5.2-4.7c0-2.8,2-4.5,5.7-4.5h4.1v-0.3c0-1.6-1.1-2.5-3.1-2.5
		c-1.3,0-2.9,0.4-4.5,1.3l-1.3-3c2.2-1.1,4.2-1.7,6.8-1.7c4,0,6.3,2,6.4,5.4l0,9.8h-4.2V21.6z M213.5,18.3v-1.3h-3.4
		c-1.6,0-2.5,0.5-2.5,1.7c0,1.1,0.9,1.9,2.3,1.9C211.9,20.5,213.3,19.5,213.5,18.3z"/>
	<path class="st3" d="M236.5,14v9.4h-4.3v-8.2c0-1.9-1.1-3.1-3-3.1c-2.1,0-3.4,1.6-3.4,3.8v7.4h-4.3v-15h4.3V11
		c1.1-1.9,2.8-2.8,5.2-2.8C234.3,8.2,236.5,10.5,236.5,14z"/>
	<path class="st3" d="M248.9,21.6c-1,1.3-2.6,2-4.7,2c-3.2,0-5.2-2-5.2-4.7c0-2.8,2-4.5,5.7-4.5h4.1v-0.3c0-1.6-1.1-2.5-3.1-2.5
		c-1.3,0-2.9,0.4-4.5,1.3l-1.3-3c2.2-1.1,4.2-1.7,6.8-1.7c4,0,6.3,2,6.4,5.4l0,9.8h-4.2V21.6z M248.9,18.3v-1.3h-3.4
		c-1.6,0-2.5,0.5-2.5,1.7c0,1.1,0.9,1.9,2.3,1.9C247.2,20.5,248.6,19.5,248.9,18.3z"/>
	<path class="st3" d="M270.9,22c0,4.3-3.2,7-8,7c-2.5,0-4.8-0.8-6.5-2l1.6-3c1.4,1,3,1.5,4.7,1.5c2.5,0,4-1.3,4-3.3v-1.7
		c-1,1.4-2.5,2.2-4.5,2.2c-3.9,0-6.6-2.9-6.6-7.3c0-4.2,2.6-7.1,6.4-7.1c2,0,3.6,0.8,4.6,2.2v-2h4.3V22z M266.6,15.5
		c0-2.3-1.4-3.9-3.5-3.9c-2.1,0-3.5,1.6-3.5,3.9c0,2.3,1.4,3.9,3.5,3.9C265.2,19.3,266.6,17.8,266.6,15.5z"/>
	<path class="st3" d="M288.6,17.2h-10.8c0.5,1.9,2,3,3.9,3c1.4,0,2.8-0.6,3.8-1.6l2.3,2.3c-1.5,1.7-3.7,2.6-6.4,2.6
		c-4.8,0-7.8-3.1-7.8-7.6c0-4.6,3.2-7.7,7.7-7.7C286.5,8.2,289,11.7,288.6,17.2z M284.6,14.7c-0.1-2-1.3-3.3-3.3-3.3
		c-1.9,0-3.2,1.3-3.5,3.3H284.6z"/>
	<path class="st3" d="M306.3,23.4H302v-2.2c-1.1,1.5-2.7,2.4-4.7,2.4c-4.3,0-7.1-3.1-7.1-7.7c0-4.6,2.8-7.6,7-7.6
		c2.1,0,3.8,0.8,4.9,2.4V2.7h4.3V23.4z M302,15.9c0-2.5-1.5-4.2-3.7-4.2c-2.2,0-3.8,1.7-3.8,4.2c0,2.5,1.5,4.2,3.8,4.2
		C300.5,20.1,302,18.4,302,15.9z"/>
	<path class="st3" d="M333.5,16c0,4.5-2.8,7.6-7,7.6c-2.1,0-3.7-0.8-4.8-2.3v2.2h-4.3V2.7h4.3v7.9c1.1-1.5,2.7-2.3,4.7-2.3
		C330.7,8.2,333.5,11.3,333.5,16z M329.2,15.8c0-2.4-1.5-4.1-3.7-4.1c-2.2,0-3.7,1.7-3.7,4.1c0,2.5,1.5,4.2,3.7,4.2
		C327.7,20,329.2,18.3,329.2,15.8z"/>
	<path class="st3" d="M343.1,25.1c-1.1,2.6-2.9,3.9-5.5,3.9c-1.6,0-2.8-0.4-4.1-1.5l1.8-3.1c0.7,0.6,1.3,0.8,2,0.8
		c0.9,0,1.6-0.4,2-1.3l0.4-0.8l-6.2-14.7h4.4l3.9,10.3l3.5-10.3h4.3L343.1,25.1z"/>
	<path class="st3" d="M354.9,13.1c0,1.3-0.9,2.2-2.1,2.2c-1.2,0-2.1-0.9-2.1-2.2c0-1.3,0.9-2.2,2.1-2.2
		C354,10.9,354.9,11.8,354.9,13.1z M354.9,21.4c0,1.3-0.9,2.2-2.1,2.2c-1.2,0-2.1-0.9-2.1-2.2c0-1.3,0.9-2.2,2.1-2.2
		C354,19.2,354.9,20.1,354.9,21.4z"/>
</g>
</svg>
