<?xml version="1.0" encoding="UTF-8"?>
<svg id="Layer_2" data-name="Layer 2" xmlns="http://www.w3.org/2000/svg" viewBox="0 0 154.2 37.76">
  <defs>
    <style>
      .cls-1 {
        fill: #fff;
      }
    </style>
  </defs>
  <g id="Layer_1-2" data-name="Layer 1">
    <g>
      <path class="cls-1" d="M12.09,13.65c0,1.74-.62,3.06-1.87,3.96-1.25.91-2.76,1.36-4.53,1.36-1.21,0-2.31-.13-3.31-.4-1-.26-1.79-.59-2.38-.99l.34-3.37,1.33.14-.11,2.32c.6.32,1.25.54,1.93.67s1.4.18,2.15.18c1.28,0,2.39-.29,3.33-.86.93-.58,1.4-1.53,1.4-2.87,0-1.49-.51-2.47-1.53-2.93-1.02-.46-2.11-.83-3.29-1.09-.85-.19-1.69-.43-2.53-.72s-1.54-.75-2.09-1.37C.36,7.05.08,6.14.08,4.96.08,3.31.63,2.08,1.73,1.25c1.09-.83,2.43-1.25,3.99-1.25.98,0,1.98.13,3,.38s1.82.59,2.41,1l.17,3.57-1.33.14-.31-2.92c-.6-.3-1.23-.5-1.87-.59s-1.25-.14-1.81-.14c-1.26,0-2.28.29-3.04.88-.76.58-1.15,1.42-1.15,2.49,0,1.25.46,2.08,1.37,2.49.92.42,1.91.75,2.99,1.02.83.19,1.71.44,2.63.75.92.31,1.71.81,2.35,1.5.64.69.96,1.71.96,3.07Z"/>
      <path class="cls-1" d="M30.12,5.72l-1.47.11-.57-4.11h-5.24v15.52h3.31v1.44h-8.18v-1.44h3.26V1.73h-5.24l-.57,4.11-1.44-.11.54-5.44h15.03l.57,5.44Z"/>
      <path class="cls-1" d="M31.06,18.69v-2.66h2.35v2.66h-2.35Z"/>
      <path class="cls-1" d="M56.97,5.49l-1.5.17-.57-3.94h-7.76v7.67h8.66v1.44h-8.66v6.4h3.31v1.44h-7.33v-1.44h2.41V1.73h-2.41V.28h13.25l.59,5.21Z"/>
      <path class="cls-1" d="M74.69,18.69h-3.4l-4.05-7.9h-4.33v6.46h2.6v1.44h-6.65v-1.44h2.41V1.73h-2.41V.28h7.84c2.28,0,3.89.5,4.81,1.51.92,1.01,1.39,2.21,1.39,3.61,0,1.17-.34,2.23-1.01,3.19s-1.69,1.59-3.07,1.91l3.51,6.74h2.35v1.44ZM71.21,5.46c0-1.26-.37-2.2-1.1-2.82s-1.92-.92-3.54-.92h-3.65v7.7h3.74c1.62,0,2.79-.35,3.5-1.06s1.06-1.67,1.06-2.9Z"/>
      <path class="cls-1" d="M93.24,18.69h-6.31v-1.44h2.72l-1.5-3.99h-8.3l-1.59,3.99h2.92v1.44h-6.29v-1.44h1.73l6.23-15.52h-3.03V.28h4.96l6.6,16.96h1.87v1.44ZM87.66,11.95l-3.51-9.29h-.14l-3.65,9.29h7.3Z"/>
      <path class="cls-1" d="M112.69,1.73h-2.38v16.96h-1.1l-10.9-15.23h-.11v13.79h3.03v1.44h-6.77v-1.44h2.18V1.73h-2.46V.28h3.68l10.79,15.06h.11V1.73h-2.8V.28h6.74v1.44Z"/>
      <path class="cls-1" d="M129.54,17.41c-1.43,1.04-3.42,1.56-5.95,1.56-2.68,0-4.84-.91-6.48-2.72-1.64-1.81-2.46-4.05-2.46-6.71,0-1.76.37-3.36,1.12-4.8.75-1.44,1.76-2.6,3.06-3.46,1.29-.86,2.76-1.29,4.4-1.29,1.51,0,2.77.19,3.78.58s1.91.91,2.7,1.57l.51,3.31-1.42.17-.57-2.77c-.62-.42-1.28-.75-1.98-1.01s-1.62-.38-2.77-.38c-2.11,0-3.83.76-5.15,2.29-1.32,1.53-1.98,3.45-1.98,5.75s.67,4.23,2.01,5.73c1.34,1.5,3.18,2.25,5.52,2.25.85,0,1.6-.06,2.25-.18s1.3-.34,1.94-.67l.57-2.72,1.42.17-.51,3.31Z"/>
      <path class="cls-1" d="M139.36,18.69h-6.43v-1.44h2.41V1.73h-2.41V.28h6.43v1.44h-2.38v15.52h2.38v1.44Z"/>
      <path class="cls-1" d="M154.2,13.65c0,1.74-.62,3.06-1.87,3.96-1.25.91-2.76,1.36-4.53,1.36-1.21,0-2.31-.13-3.31-.4-1-.26-1.79-.59-2.38-.99l.34-3.37,1.33.14-.11,2.32c.6.32,1.25.54,1.93.67.68.12,1.4.18,2.15.18,1.28,0,2.39-.29,3.33-.86.93-.58,1.4-1.53,1.4-2.87,0-1.49-.51-2.47-1.53-2.93-1.02-.46-2.11-.83-3.29-1.09-.85-.19-1.69-.43-2.53-.72s-1.54-.75-2.09-1.37c-.56-.62-.83-1.53-.83-2.72,0-1.64.55-2.88,1.64-3.71,1.09-.83,2.43-1.25,3.99-1.25.98,0,1.98.13,3,.38s1.82.59,2.41,1l.17,3.57-1.33.14-.31-2.92c-.6-.3-1.23-.5-1.87-.59-.64-.09-1.25-.14-1.81-.14-1.26,0-2.28.29-3.04.88-.76.58-1.15,1.42-1.15,2.49,0,1.25.46,2.08,1.37,2.49.92.42,1.91.75,2.99,1.02.83.19,1.71.44,2.63.75.92.31,1.71.81,2.35,1.5.64.69.96,1.71.96,3.07Z"/>
      <path class="cls-1" d="M30.4,35.11h-5.39l-1.12,2.54h-1.49l4.6-10.15h1.43l4.61,10.15h-1.52l-1.12-2.54ZM29.89,33.95l-2.19-4.97-2.19,4.97h4.38Z"/>
      <path class="cls-1" d="M43.46,31.03c0,2.2-1.59,3.54-4.23,3.54h-2.51v3.07h-1.45v-10.15h3.96c2.64,0,4.23,1.33,4.23,3.54ZM42.01,31.03c0-1.45-.97-2.28-2.83-2.28h-2.46v4.55h2.46c1.86,0,2.83-.83,2.83-2.28Z"/>
      <path class="cls-1" d="M52.28,35.11h-5.39l-1.12,2.54h-1.49l4.6-10.15h1.43l4.61,10.15h-1.52l-1.12-2.54ZM51.77,33.95l-2.19-4.97-2.19,4.97h4.38Z"/>
      <path class="cls-1" d="M63.93,37.64l-2.19-3.12c-.2.01-.42.03-.64.03h-2.51v3.09h-1.45v-10.15h3.96c2.64,0,4.23,1.33,4.23,3.54,0,1.57-.81,2.7-2.23,3.2l2.41,3.41h-1.58ZM63.89,31.03c0-1.45-.97-2.28-2.83-2.28h-2.46v4.57h2.46c1.86,0,2.83-.84,2.83-2.29Z"/>
      <path class="cls-1" d="M70.28,28.76h-3.48v-1.26h8.39v1.26h-3.48v8.89h-1.43v-8.89Z"/>
      <path class="cls-1" d="M86.91,37.64v-7.39s-3.68,6.16-3.68,6.16h-.67l-3.67-6.12v7.35h-1.39v-10.15h1.19l4.23,7.13,4.17-7.13h1.19v10.15s-1.38,0-1.38,0Z"/>
      <path class="cls-1" d="M99.43,36.38v1.26h-7.36v-10.15h7.16v1.26h-5.71v3.12h5.09v1.23h-5.09v3.28h5.91Z"/>
      <path class="cls-1" d="M111.23,27.5v10.15h-1.19l-6.09-7.57v7.57h-1.45v-10.15h1.19l6.09,7.57v-7.57h1.45Z"/>
      <path class="cls-1" d="M117.02,28.76h-3.48v-1.26h8.39v1.26h-3.48v8.89h-1.43v-8.89Z"/>
      <path class="cls-1" d="M123.18,36.48l.54-1.13c.75.68,2.04,1.17,3.35,1.17,1.75,0,2.51-.68,2.51-1.57,0-2.48-6.15-.91-6.15-4.68,0-1.57,1.22-2.9,3.88-2.9,1.19,0,2.42.32,3.26.9l-.48,1.16c-.88-.56-1.88-.83-2.78-.83-1.72,0-2.46.73-2.46,1.61,0,2.48,6.15.93,6.15,4.65,0,1.55-1.25,2.88-3.93,2.88-1.55,0-3.07-.52-3.88-1.28Z"/>
    </g>
  </g>
</svg>